<mxfile>
    <diagram id="aSmyGZWSWAq7Zc-FoIMZ" name="Page-1">
        <mxGraphModel dx="1308" dy="934" grid="1" gridSize="10" guides="1" tooltips="1" connect="1" arrows="1" fold="1" page="1" pageScale="1" pageWidth="827" pageHeight="1169" math="0" shadow="0">
            <root>
                <mxCell id="0"/>
                <mxCell id="1" parent="0"/>
                <mxCell id="18" value="" style="shape=image;verticalLabelPosition=bottom;labelBackgroundColor=#ffffff;verticalAlign=top;aspect=fixed;imageAspect=0;image=data:image/png,iVBORw0KGgoAAAANSUhEUgAAAnQAAABhCAYAAABf7TzOAAAbh0lEQVR4Ae2d348dR1bH/Y+0lcQsCUKWkCOwgwgSLNkJCYMRODwgZQlY5iGbh3UeIFlsaSMRrEwUwy5a1hqbBwsPfohkaSI0GmSITGZXI2viWcYjLJXkp/wBvOwDD5E4qLrut+/pc6v6x52+93bP/T6Mqqe7+tSpU5+u+nZVd98Tt3eduN3b8maWSXZtS5zbldtvZnLy5MniL8veEp0Px1L7cdyn2Vu3Zdc52b39ZmEv35+X5WTrw1AW8uH/mA0ce+v2rji3JR9mxk9jU5fv3LgsbXse26ibjcE8ymYZY44ZC8aCDJABMkAGjisDJ7RQ80Lp6dOnyT8IPwSjU0EXEWNFOUoUZlkm17ZcY0HnbWTZNdlyrqjXvMSdF8g+njZuqBdTdixkgAyQATJABshAFwyUBF1qhi5VUKeCbiTaMAunywx+hRm2aQRdydZI3HlRN68ZM87Q8WLVDHKbPJABMkAGyEDXDJQFnZoJa1JQp4IOQmvrw9LSrPfDLrGG/8tLw4UvDZZWMWPnImWNy+tO8BUidLS03SS2zMOLnQyQATJABsgAGWjKQFnQFcuZzZ83C+IqnT81O6Vn3eAsbOmZM+Qr7TPiD2Jud2srf15Pz/J5m/pcXxZs6nzwAba6XCqloOMFCb6YkgUyQAbIABmYBQMlQYcCvOCxz9JVPXfmRZPOr19YaCPofPm27NhLGnm+0WxiLrxGs3IoSws1iKmyf+XZPdQbaUxY4tg0KXzgs3S8iKfhh+eQGzJABsgAGahj4ERdBh4/OkQUdEePITlkDMkAGSADZIAMpBmgoFOfZ5kVKBR0aQBnFXPaZczJABkgA2RgmRigoJuDoPNAVT23t0zAsa7sYMkAGSADZIAMdM8ABd2cBJ2HF88azvOTKbxour9oGFPGlAyQATJABvrGAAXdHAVd3xqf/rBDIgNkgAyQATJwPBigoKOgm/juHy/u43Fxsx3ZjmSADJCB5WGAgo6CjoKODJABMkAGyAAZGDgDFHQDb0DefS3P3Rfbmm1NBsgAGSADKQYo6CjoeFdGBsgAGSADZIAMDJwBCrqKBsxWb8rO421ZW8kmQF+9uSN7G5cm9qeUM/fzrooMkAEyQAbIABmYFQMUdAlBl4s55+Tx9pqsZGVBl2WrcnPH5T93NgtRp+27hKCcFRC0y86GDJABMkAGyMDwGOiNoPMzXvr3VmPbVjzZc2LiC1BCoDn3WLbXVipn1iCo3N6GXDJirrCXnZOrm/vi3J5sXCoLPuSZJi3KppCrbKNpYstzhtdBsc3YZmSADJCBZgz0RtDpBitETUJQZRExlZ27Kpv7TqwI0/uv3dyRJoLOC8UmQk3bTgk/Xa8m20F41ovOJraYp9lFwDgxTmSADJABMjB0BoYp6PyzbZGZtnNXN2Vf7Q/CcCyOglAb/x9rPIi0qtk+fZ4tUx+bZpuCjp3KNNzwHHJDBsgAGVhuBgYp6HJhFlmSxBJsSow1EXQhT/Nl1LYCsO6Co6Bb7guyjg8eJx9kgAyQATIQY2Bwgi62HIsl2MfbP5Yf+OfaEku1dYIOdlLnxwJYnBMRmLH8dfso6Hih1jHC42SEDJABMkAGLAODF3QQVGFWbvSiQkJc1Qu68PZqaobPBg//t53Vw3mxlIKOF2mMC+4jF2SADJABMlDFwMAFXRBwEGAQd6lPfdQKutGLFbBXFTh9rKvn6Or812Vymxc2GSADZIAMkAEyAAYGLOjuye3N/dJ34gpBNO2S64IEXbGMrF7oQAMx5cVKBsgAGSADZIAM1DEwQEEXZuX8d+rsTFrdCwq1M3SjDwZbu3VB7GrJtRCkiSXjOj94nBc8GSADZIAMkIHlZGBwgs6DmlriTO0H3PWCrvoZPNjRadcijM/QLeeFqJniNhkgA2SADJCBtgwMUtDFRFTd7JwPTJ2gG+fhZ0vagsT87HzIABkgA2SADCyOgUEKOg8MRJ3+iTD702A+nxdxOo/ejv0aRBNhqIGtmxXUeZtsc4ZucRdDk/ZhHrYPGSADZIAM9JGBXgq6RQeq6TNxEH9tvltXVzcKOnYUdYzwOBkhA2SADJABywAF3clJKAqhVvFyAmYIY7N8Nsht/qegm2yPNvFjXsaPDJABMkAGlpEBCrqIoPMgBGHlpv7ViWlhKj5hkvj0yrR2eR47ODJABsgAGSADx5cBCrqEoPPQe1H37/+5IX+1kom+CCC6Ys/s6XzTbmOG0D/vl/pI8rS2ed7xvZjZtmxbMkAGyMDyMkBBVyHoeGEs74XBtmfbkwEyQAbIwJAYoKCjoCvNPg4JXvrKzpYMkAEyQAbIQGCAgo6CjoKODJABMkAGyAAZGDgDFHQDb0DemfDulAyQATJABsgAGeitoHvuuefk5Zdf5h0DBScZIANkgAyQATJABmoY6K2ge+GFF+Ty5ctswJoG5F0Z78rIABkgA2SADJABCjoKpgnRfOb6fXGH9+T9rPy5FnYY7DDIwGIZyJ5/R+7uHcq993ltksXFsujj73/6cnd7TVY4VkyMo4vgk4JuhoIuW/0XOb9+KN/603ONGzt76e/lW/94KBfWfyovv/7Ljc/rCp4se17eubsnTx7ckDcWcJF6MVn+vV0OXll2Rq7fd61ENtrRx3JWbZkLfzfs9nn+nbuy55y4Jw/kxhv9FklBzLXjoKt+gXa6FU+n/uhT+f31Q/njW0/yvwvre/LNP/lm6/7++b/4vLDhbV1Y+yf5pTn12/i1JN/HHFDUtW67WVxTvRV0zzzzjPhl11lUugubEF6r3/2OPJO4gIYk6DBYaDHltw/vvT+3NggC4Yk8uPHGXMq04tHWPVZ/e06VWCrEwhFFDwVd88G0bayKNuq5oINAH4LwrOpfszPX5b5ztf0K2iV2TeoYwJ6LXGN5f6LaNdXH+TK0zSr/uzgGMff6d77dWT+XZefl3N8ezlXQIRbnb+6IcweyvbbSWX1gm2nzvs/HqreCru8NOStBt4h6o/PMxUm+pDM/UYX6th2IcV5XaV35xYCqBg4MEHZ5GoPMkwe35OO7exIbbNr4XedbG1td5g0CvF8zdH2N1VHjHq7R+V+XR/Xbno9ro82NYhVnsOdFmb25Sgk6m8/6OMv//azWr/zlrlz44Wfy4pnuZoQXKeh82Td3nLiDbVkzv6o0y1jS9qTYo6Cbcsn1uAi6YgAc3ckGkTL/gQPiaFGdbRGHxLODYeCYjIsdaEM9gsiJicBpOqE636ax2cU5VQNtF/ansdHXWE1TF5xznOoEAdatoHsiP9nalj11s+Vj109BN5uZtEUKOh/r7PxN2XFO9jYucpZuSk2B6/0oaW8F3bPPPitnzpzpFRz+N1x/7YOflZ5ZwDMQSC98/xM5NVqC1Uuuv/jn/yZ/OHpm4sL6lvzq6fLdGfIWdiJ50NAxP6qWfnFeLC0GCwi6fEkkPutSCJRc9ITnurAkEluygEgr8rhJQQSfkLdO0CFfE5uw3SQt4pAQdHZwgE2/PzY74I8X8TIDDc5tmpZ8y2dQXfGcoR0YkRfx8anNE3wL7ZfHe7QMhnNi+f05qCvy+fQos48xX237o729T5hJDuWWWYr5VvJTLb3F6mJnWXXbNPIzj2HwSfuSig/qBR9dxbVhbxq0b3rb2vS2bVvqG5Ou/dS+pLZnJege3PpY7u6Vl3J9/XS/hPhYxlK+zmJ/U+GVnf6e/NbfjZ+x8+PCH/z138gvpB7vabDkam1WPbfX9tm8YpZub0MuJnycRTxpszxL11tB1/fPljSfofupvL72M4HQgxi78Mk/y+lvlEUd4Dz97p7ERJ8/nmXfld/84aHY80+/+x9Tv0SBjt13frc+vit7ZvCDXxAoGIQwWKCj1IMiOm7deWJAtufBXizV58ds5oPt9tEfaMegreswrvfkSwmIRbGsGhGCyJMa1GG/LoVvT3Z3S7MQNp7WDuKFeOvjsOljrv2LiQfktbHJB8wpxSp8i7WvLgds5X4qLkPZZVHn65fyVdddb9flb+ynEsXwv2h/5Xfu4yhvqe7+xZcEx1aYaP+xHWMB+0rlVPlp2jJa9wo/4UtVCpsxJlPnVXEW7I2FtBZwNm5gSccjVWaX+yHicLMeS/XLDLnwWisvyeK5u5SoQxnajq5D9tKP5XfXD0uiMD/n++VyiiXh9R359d8O41Nhu2aZODxLtycbF+PjmvaH22Uh1lU8KOimnB5tLugOCzGHRguzdem3WCsF3egt2Gln5OCDTX3nB0GVmi0oBigzm1DsHw1cxf9G5KT2e1+adLYxsWHrMe3/VQO7PYZ6hIEhvBWsBxL4gHxaMOFYm7Qo3w64ozeSISCszarBM2lzNAOoB73UgJrab/2w/xdxMXz4fLaNwYWNL/zXfvrzsT8Vk0lfJsU68rTycySUbLm2PrE6orxYWuUD8qPONhb+uG0jMGH9RJy10Ir5jjKnTVG+LqfOlq2Dzq8FnbWdn6fENOqIfk6nsdjpcrraLsRRy7dRC6GVOK/ObhCE9W/SBuE3mS+1X8fFf8Jkny9HLHRVkYJuDoLOfrbkSIJuNEPn7/K6FnUYPNDRWSGC43Zw1Re130bHGeu0U50zzqnqWNFhpwSn9aPN/xgU7UCX16f02ZDyZ12qYlIcM0KsjV+T5Zfvfu2gpW0jXrF2SNXXtkNRh4j4SrWl9iG2jTKifo0EJY4hr+Ui5VeqXjE//L6q/Cgbvmgb9lgq1jFRhLxNOK7yD/4Ee5OzlXn9cqE5PoaybZ1Qjo4z8jbxE77UpbBpy686r4ozXfeCiZGIs9cG2kzXsarcWRyrE16pMgtBl5glq7OLGbqqZVZftl9qjb2wgeXa1AyhP5fP0c1m1i3FRGx/bwVd33/6q80MXZeCLr9wIs/ydSHu0Kn7zhYdrxZ1tsOMAZX7p5Z1IA51qm3CRtPOFvlgr6vBBnWvFnSfyW3zjb4iJhHBUxybtaBL2EcbxgbPVH0RXwx6qXy+3aoGWrRrLK30y8wQWn9gr4itmoHxx6r8xbk6rcrfys8R8zbWMUGX+2mehUxxXOUf6pEqIy/H+JWqU6ocxL+r6y1VPuoSS6s4C/asYI0vwaIuYDtW1qz31QkvlI8lVrs8GxNb/pwmdiHKYNOKO4hGHI+lFHSLF21gJJb2VtDFnO3TvkUKOh0HPJPnLz48p6ePt9lGp45BKXSkqrPEEp8ZRG0Z6Dhhxx6P/Y9z2nS2OMcPNm3KipZfmoUrz4JBPPhyrH/wwe73ZeC8mICN+ZDah3axYrOwn2iPqsEzadMKqoq4VA20qbrkcTGzcDqv9TkV36T/Ff7qcrCdstPaTyOcYL9KbCEP6hjjuGjjyA1DcX5e9vg6xX6f2vJtfJEXPsQ4tnlifiJPXZoqv+q8Ks6CvXHddXteG+hLEXghQX+nDmLrKIJOx1iLO11OaoZOn5va5pLr4sUeBd3AllxjFxNEnX1RAnl9h+g7YSsIcBxp6NTHnePUgq7loOrLbzKgwE+dVp2HwTAmxLSNvPwan+3AiPNT+4PN0fN1iRk02MAglBoocdy2H/anBuGqwRPnTticEHTxZwQR92nEaqpsH48Qz/Fb1ijH1hH7rZCvso1467Qqf9WxCT+PIOi8P6iPrac/ViVoGp2rBH+KCSuMdIz0dpWfOl9qO1V+Kr/fX1X/mN9om62to7/lGmx190sidTNpKeGW2o+41dlFPp1C1OlZt6bP2mk72OZLERR0yQcIe/9LEaNlz9TbqB5yfIqkyyXX3Kb6NEpeTsWLEhiUckEXERZ5B/2T8LutoXMcfUNtNEDpAQYCqe4ZOu8TOkJ9Pi78WNpkoPAdux3AQzljEaptw2ZedzWo6TzYRpyswBkfnxQ2sJ+qYxGvSNxh16cY5HI/IzMxMd+a2IZdG7O8zISAjdXJ2gl54t/+0vWq2o7xgXJ0PKP+wPdEm9obkSo/YrHV+Rv72ULQteW4inH46m3aGwL4rtsfMS7tG4l4y35bP+FLVRorvyq/Pxbacyzydf5gr3z9o03tdR9jSduKbSOuNraxvE321QmvQripnwLDOfkqzJTP0PmZNz0T532NiTeUdUG95dq0XvnHhfnZkqSmaRLHo+bp7Qxd3z9b4gOPmTH9rIFe9mwj6PybrdqO3rYzb/qbdshnRaMGA52S7bCRB52s77TwF3umpxARiYEU9pCiA4VNpHrAtnljx4o8oyVf2PFp1QwR/PX5qux6+xgEUjEKeYKo0+XrgTGVR+ePiWGU7fNZe6g72rBkKyb+RsJC58O2blOUaeuLNrPxgjjwthDzsC8+0MLvqtRyp/3DefAHdUBq/UN+pDZeOu6oO2zZ1Npu5GcLQae5RNmIKfzXKfy1baXz+G3dRt5uzKatC8qPcdfWT+tP7P9U+bm/imdbF/iZ51P9T7BXFnQ6FqV2HwlXbQvbOp/2W/MXi5HO22S7EEyJt1W9DeRB345n3exyqM2H/Ej1zBuEIo75tEq0Ydm3aX6+ELH42TnPDgXdlEuuTS7eoeXxg2DdoDG0OtHffnQ007YDBlQrsqa1N9TzgsCZFC5t6wNB1YU4aVv2EPND1MZuNoZYn1n47IUlf/qrH/0sBR0FXT5FjI5r2QfOWXR4tDl9Z0dBF2JXzNLVLN/XsUZB145FxIv9Yjpu4dm5A9leW1nocmMd+8twvLeC7tSpU/Lqq68SEApOMrDEDFDQjQdSxCK1PNhkwIJA4QzdOK6xuCFOnJmrjlN4s5W/4RpjaBH7eivoFhEMlll98TI+jE+KAfvMGp5NsmlbMQIRwxmSwF4ej93pf+oOQqULQYdZQ9vGsf/Zfsev7/DP5V3d3JeD7TVZ4e+39mLigYJuiWc/UoMz9x+/zpdtyjYlA2SADBxvBijoKOh6cWfBjuZ4dzRsX7YvGSADZGC2DFDQUdBR0JEBMkAGyAAZIAMDZ4CCbuANyDue2d7xML6MLxkgA2SADAyBAQo6CjrelZEBMkAGyAAZIAMDZ4CCbuANOIS7BvrIu1syQAbIABkgA7NlgIKOgo53ZWSADJABMkAGyMDAGeiVoMvOXpHNR06cc+Ie3pGL/LYNL7CBX2C8I53tHemyxFdOnBD+MQZDYGBZrsk+1rNXgg4Bys5dDcKOoo6CjoKODJABijkK2sEwgHGc6fxvZnsp6DwI4SdFHsqdixkHNA5oZIAMLDUDQ5iZoY+cQfQMUMjNX8gh5j0XdHuycYmCDo3FdHEXCmPP2C+SAYoliqWhMLDI62TZy6ag48wH76jIABkgA2SADJCBgTNAQTfwBlz2OxLWnzNnZIAMkAEyQAZOCgUdBR3vysgAGSADZIAMkIGBM9BbQZe/6brv5GD7I3mFny/hhTbwC413j5xBIANkgAyQgVky0FtBh0r7t10f8bt0FHQUdGSADJABMkAGyECSgd4KOnxk+GB7TVY4Q5dsQAhfprzzIwNkgAyQATKwvAz0VtCdveJn5qo/W5JlZ+XK5qP8lyW4NLu8ELMDY9uTATJABsjAsjPQW0EXPixcJ+hWZf0LJ0+fPhXn+BHiZYeZ9WeHTgbIABkgA8vKwKAFnW+0IPz8779Wi79lbWDWm50bGSADZIAMkIHjz8DgBR3ehnWPt2Vthb8qwYv2+F+0bGO2MRkgA2SADFgGBi/oVte/EOcey/baCl8c4Ns/ZIAMkAEyQAbIwFIy0EtBl2Xh2Ti3tyGXEm+4BiHnxB1wZs6qdP7POzcyQAbIABkgA8vFQK8EHT5V4vx35yjUlvIOgx3QcnVAbG+2NxkgA2SgGwZ6JejYqN00KuPIOJIBMkAGyAAZWC4GKOj4rAFnAskAGSADZIAMkIGBM0BBN/AG5B3Yct2Bsb3Z3mSADJABMhBjgIKOgo53ZWSADJABMkAGyMDAGaCgG3gDxlQ69/HujQyQATJABsjAcjFAQUdBx7syMkAGyAAZIANkYOAMUNANvAHb3IFl2Vm5urkvexuXeOGqdn/xvXuye/+6vJb45mGbGDPvct0Rs73Z3mSADPSFgd4KutI36fx36ZyTg+2P5BUOulOJMS/mrmw+6vVv3r70o6/kR+5rWd/bl9dPz+dn3LLsRXnv3iN5+vSpHM5A1Gn7zn0pd9+eT7360sHQDw52ZIAMkIH5MNBLQVeIuYpfiiAg7QA5e2VTHrmDiZ9ICyLqK3nrN+JCI3Y8e3dffuC+lltP/y//W3eT52fZt+XPPv/fVuJsEYIOHK3ceCDOHcr9669NJZhhR6cQcxRy7VjVMeQ2Y0cGyAAZaMZALwVdEB/8fdauIIZAPthekxUzwxlE1P/I5ctnokLGCrpY/t/79Oey7so2phF0XdV3GjtZtiI3Hjhxh/fl+mtxcdvWbvbie3LvkZMv774djW1be8zfrFNjnBgnMkAGlpGBXgq68Dute7JxqZuBdRkbVte5Kp4xgabPzcXaaAk0O/+v8sF/fy0f/MPvlARKTLzF9mm7fdzOVm7IA9edAKOg46DSR87pE7kkA8eTgX4Kups7lc96Zavr8oVfPvzoFQliJTxj59xDuXNxehE4fs4M9pCO7WbZqqx/4cQ9vCMX1WzXeBas/JxfzGbsWcC8Hgfb8tEreNYtUvbZK7L5aLJsf3Gi/JRfjyOzc/l5+fJpeXZNX+xa0IWZuMnlVZ/fCsM2gs7bxfKtT9c//0xOq9jCn7EvH8vl/1JLvon8wSeVr+bZvGKW7su78nakfPjRNKWgO56dZtP2Zz62PxkgA/NkoDeCrizMIGZ0qkTV6k3ZGb0o4R5uyKUskyw7J1f9Q/+5KGov6gqhdrAtayvj81eNuPT5bu44ceb5vuzcVdncd6KFU8xmni8iykI5ob5YGi3KGtUp1HFfYsI1tUwdxG96+RrPw2HWLYigsWjLRVQumKqfibN22gg6AJ9lQahVCToIP/iLWcNPPl2TbygRFsTnWKgW/kSe90P5Pg3P0nXz8gIFHTtzzRa3yQMZIAOzZKA3gk5X0ooofcxvZxB0RlSdu7op+6OZO3tO3f+pZUnrSyGyTNkxQRdE1uTScfBzLFC9b74c/6al/aRIKH+cF3V/eOdisexZzAIan7zdlA+IBwSRF0gQPV40QTCNBV212IIdCCvYavPGalNBB998HWLlwBedL8+bWDJGLHzqP2HyqKOXIyjo2HlrtrhNHsgAGZglA4MWdFb8BKGUno1KBbJKEE0r6KpsxkSZLSft62iGUC35hlk4NyEGvY2UUIV9LX6CoPpKvrf1cwnCbDQrl8/Q9UPQ2TdqY4LOzjIWda2ZAfT5unyOrsvZPtSBKQcEMkAGyAAZiDFAQZfP8oyei4vMcFmh1XSGrlhuxdJwJNWC1JYTayzsszORuWh7XF4qRt46u5gVywWcf57Oizef5s+bBUFXEneJ59DmteTaRND5WUUszcbS1JKuj9lRBR0+VeJnW/l2KztdXIdMyQIZIAOzZuD/AXS355u8JV00AAAAAElFTkSuQmCC;" vertex="1" parent="1">
                    <mxGeometry x="40" y="40" width="628" height="97" as="geometry"/>
                </mxCell>
                <mxCell id="20" value="" style="shape=image;verticalLabelPosition=bottom;labelBackgroundColor=#ffffff;verticalAlign=top;aspect=fixed;imageAspect=0;image=data:image/png,iVBORw0KGgoAAAANSUhEUgAAA9QAAAHiCAYAAAAJaIQdAAAgAElEQVR4Aey9ffAdV3nnCeSNFwdnMmECGdqW9JMsCDAB5WUIWHlxHPgNhCIIGeIsck3sDGLACbAJhLB4YlRZ/LIOAcKbZSsbERtDSBxkeSTXiE3sSEZSHBtlFEnuKleq5p+p2krtVM3uTqVSVO3ZOqfv0/30uef07Xtv37597v388avu231envOcT/evv/2cc/pZV1xxhXnZy15mPvjBDxq7P+S/t33uUXMh/4b5zOuyRjt/42vnTJ4/Yb76gVc2phtyW7Ft2CzSP/QPDMAADMAADMAADMAADMDAsywEKQjqLPsN87Vzucm/8RnzuiwsqAshnZv8ia+aD7wynAbogR4GYAAGYAAGYAAGYAAGYAAGYKALBpyg7qKgRZWRvfVz5tELuclzhPKifEy53ExgAAZgAAZgAAZgAAZgAAZgYHoGBi+o6dTpOxWf4TMYgAEYgAEYgAEYgAEYgAEYWDwDCOqBzxvnIlj8RYCP8TEMwAAMwAAMwAAMwAAMwMAsDDhBvW3bNrN7924W8EJcwwAMwAAMwAAMwAAMwAAMwAAMwEBLBpygTmFRslneFpCHt0wwAAMwAAMwAAMwAAMwAAMwAAOLYgBB3fLNw6I6gHK5uGEABmAABmAABmAABmAABmAgTQYQ1AhqhnPAAAzAAAzAAAzAAAzAAAzAAAzMwIAT1Fu3bjW7du3CgTM4kDdJ/bxJyrIPmT8994T56gdeCadwCgMwAAMwAAMzMJBlrzW3HDltHrnzjfhvBv/xzNfPMx9+xs+pMeAE9VCNzrK3mc89esHkT3zVfOCVWeub/4f+9Jx55plnTP6Nz5jXZe3ztfWDLT/Pv2E+87ruy25rw7zpsg/9qTlnv+2dQDsKMT3c75Bn2ZvMLx37f829z/x/5tMPHzI/sgDm5u3vReXPsveYd5/8J9f2O798i9m6Rm1flE8pd3gPEll2wFxz8Lx5+0dubf1/KMveZV5/53mz9+B586b3/nLrfPT/5P7PXnuLOfJUbv72kTvNGwd8z8neeo85mefmiftvGkz/i+/y/G8XIqqlzfYZbOj9w7U2+VrDR/gIBtoxgKCe4Q3lEAX1tC8fUhLUy/B39rNfMr997tutBDKCultBnWVfNB+68G0n0g+e+BOzY84HZimvk7Le+Q3ziUuFbfYFivwdPHvGvGFjOC/Yslv+znwuD9jZgT9X7Z9rKXxvv8e8PMLaugvqIqr5lMn/9hFz5xuXz7mIwqELNhGXQxLU9vrNsreae07mnfentHfo/bJq9zDa007w4Cf8tEgGBj3ke1qRuEhH6bKXIfB0/aH9ofoqZOs0x0T4f+Mzr+v1Df80gnqa9pB28g29EIN/b24+/F/NF/K/N+96xXwP8IsQ1Doar6P0t9z1r3rlNMaTCGptT+mH/P8yv7Z/+yDsjNnf5/FFCeo+27DouhDUk+9boT4QgTk0QW1tFdu6FL9vvedk5yI95FeOzcYjfsNvMLA4BpygHupns4YqEhHUiwNSX+zL7H8EdT99rPtb9t9+5B+NiyaPoqxaFEqaabalkOwgOpuNItRaUFtbRFQf7OAFwDRti6UNCerCziL6P7SIeqwdfRxHUE++1hHUk30UYlVE6xAFtbXXCeD8CXP/TfO9tJS2I6hn40T8xxb/wUC6DCQkqO2iVLmbG23n5jzx1Q+YV6rheSK+7Dn589NYUCWdm1/9ts+ZRy/EyxSwrYCWMmU7z9xjsUHKslt/vrfMG3ZtGM13lvQ6Wvu2zz1qLuRVGySNbH07/fRN89PFBinLbn2fZiMfWpt02XkeXkAsVKZuj/jc9dWo3bHzklbErwy/tdvbD+2vReCyd/2VuTP/f8xHPr5pfvrwP1RDdfP/07znncXDhB66rcvS+we/+Zdm94i7LPt1897T9WG1fr1io2uPs6FKf3Bkj07z6k/k5jPOpmpetq3/4LlL5h0/Nf7QU7RLl1m1R5fb9b6IVO2bJuErAk/Sx4SnlGvLkn1/qHZU1HoC3ApzqS+0DYnK3ffYqLj2Zz1CHqvb+lfyih9Kke2EfDWM3doSqlvaq23Vwr3wYTy6rM+Lv8UW3f/uhUUgSu37S9tYb0uAw9FceukrbYsuN9bv2r6+9n/4fX9l3nHvxejf3i/+uXlNea1Xc6iza+41bz543uXbe/A/m2tG9w+xW4aHS9mhNFXazPh27G0Yei75mrYifvV92x+qLWnGj4+GAj9xv7kpy8xrbzlinmr8/zIuxkRESv1dzNWVId5Spmx1dFXSWPHq26DTie/8NL6dk8Rh6LxfptjpC2oZci3n7VbbqNsi9uqtf76ypeg/KTcf9aPOq/fFXt8+nWaa/cqO8XvENOWQNl1RQd/Rd+vKQCKC+rQ5faESaDIM2Bd30oki8kLntZjVok/K1OJNxJ8vdueJUIttuszymFp8Teq2/xi1KBbRqu207ZZ2NQlk8U+b9OIP7UM5FrLd2ansD/mobKdaLK6w+0Rwgbeirc2LvxUC9Ns1AS3H9AJhWniKKBYBfVCJavGRiHRdhpwLbaX8mKC2It4X0CLsdR6x3YoqqVuEu9gt9Utand/Z/ReV6Je0i9w2iTdbry807TEnTI+Pz4/WQsymc+LPm58cE7UxO0SoitgL+aIUjCrCXB2rRGysbtemkaAXESz5RSCLuJUytD1iu+TV5Uk6SSPl+O0o/FzY2pTW74/SP8rP5bGRP6QtWmTr+sv0o1EAUr97eSDHRHSrenQZy9qfJkL95jv/yojQzrJCDO+9+zHzup8OC4jsl75uYoLa5t/10fPGz5/90p/PvIhZIZTrKziL+NLiua2glj6JpZfzsnWCylvsyh6z/x9mFW2FqK8voCVtConQ4n9mJfTlpYCuv42dRZqqHGmj3Yb8EUofEqxyrGb7aPEyEcCh9tXq9xY7Ex9rP08qo2hH/QWKrmOWfeeDgcyzn8V+8iAGYQAGZmXACept27aZ3bt31yJ6sxbYZb5SJAainU6wKQGn6xXhpsWgnI+VKQJWi8WQKLTlxI5LHU3bmN0iVkUol/Z4q3CX9itRausrj0d84tvUlL4859VhyyhErnq5MYpQ+0Leb4+zsWXEWWyN+UrOi9AU4SnH7bYQsFW0VgSvL0pFOGtRavPL8VDZuh7Zl/L9cnRZ/rlS0Kvos4hkv16/Pbbc0DGxp8+tiKeY0CsiovVIb8w+X0AXZVeC1uYTQarFpzvuRailDl/syXG9DdXjyhwtkFaK2siQb5d2dK5MKwLSiwb74rT8HRiSXhPJo/LFz77NRdrCz019IufEfzpfzSdeW3Xf+DaLj6VMqUN8IeXq9sixNtssu9Z8+O4HzcMPPxz9++z7XzHT/7BpBLWIabFZotWxVbybBfVoFfA5I9JiS9O2EJWVOAwJQptfIqci7KTMWHo57/KOVt7WwrUo036mabYFzWKiMHRcjukXB9ouEbCSbpKdvs+0WCz9MYoAi0geK9MTvn4+7T/94kD6IWZzUV/1kkEEta6/rKtB4LZJo22ctK99NCkt5xEuMAADq8SAE9RDbVAp7AIisSl62UpQe2WWAnYkIsu6A6JyVkEtdYSFfjGkXc5JWi3wpZ9CQrO012uX5PG3TenFfyLudV7/nPwWuyVtUFCrIfahsiWv3TbZJ+kKEVsM45ZjsvXPxQRvTJR3KagLkVyJe7HRbv1zxe/xNoXEs4jvUIRd17HofRFPIvT8+goR9W0zabivL8psOcFjntCT+mJ2SBm+uJN8dqvFoj7un4uJeZtOzkk9peicEJGVfCH/6XPSDhGt1mYbAda/JYIc84WzsxZJLz57Jjbrtpf2j4S+Ft5il/Sp/JY2xOqfVVBru7ren0ZQ+5/Nmk9QFxFqOzR83mHek3yixZpNGxNSIuRmEdS+ANU2NZ3T6fx9XzjKeRHFIjjt8dAxSa+3Tbboc7ru0i+j6Lv8lvp1Pl2XL7TFRi18Jb0+V/aPN/Re+sWvzwlZby50WUaDoLZ1h/KKTdNsxX7xyTR5SYuwggEYSJ2BxAV1FSnVHRETeTZNTKj5Atb/rcufWVCPBKUvPgu7CkEtAnra+mPt0nbr/ab0ITEseX3f+r/LdJFotLTLDk2Tv5C4brJP6oiJT3veF9D+bylDBHUscu1HiiWfv42Vb9OFxLDk99vg/5Z0sTKkXhlWvAxxHRNPYrvdSprKzvGIdZHGi0ZLlFeJUhFvIiSlHqlDRF153Isyy3HZlsJR1SHn7NaJbRn6HBHzNp3UL3ZNKlfqkHy+3a7MWn1a/Nr9fzC/dviS+ZyzW5/LSltCZcoLDntORHqjoB75RfeP2z/xTfPek/9kXDlOpFd9F2sTgrr+0CTDxmW+dRfiWoSN3F9lq+cIx8SWCEURbiWj2eQoc5MwKwRgFVGVcidtY/mkjVq8hY6Fym9rp5Rnxa/bP/2IOfzVk8VcZy8aHytzTFB7EWttn9QnbXJljsSw3X/iwcPmyFPFKAN9zpYRqj/Wx7rOWF4/TdNvaaM/MqApD+fq9wH8gT9gIH0GnKDesmWLsSt9D61Dm0RVk6iNiTzbvliZIvRmFbRtfCd1BAW1J7Ylrdgj5cftf5v53KMXjD/0WvL521g5Np34Lyh0PaEsaf02NYlysUXaaB/4/Pw2TSgSL3mdnWqhMX3c7vvCVITn2LDryPem+4pQ+0LZt1va5aeT43orbfTnaus0i9iPiadYXZL+oDcUWiKuIrr1VqftWlBbO2MRal8Ux+q2ZWihan/7eaP+GInmkPgVX8m50s4bvmE+cfqMeYPdXrJC9oPm3Sf/qYxW+/l03cULgkL8ljYGhpv7Ylvabm2xZcjWiXEnqKuXJLH6ZxXUQxny3WWEWvdJwUu1QJk/tNxPG/tdihtvMSpfmMbE1jyC2o+aahtDgk+fj+37dks6X3za46Fjkl5v29opvrAC94ZbjpjTo+1TVuTecIs58lT1giDWPukPiUiLjfJb2+Wnrey085ytkC7mO9u8rj7Vx6H6Y31cq7PFixKdvmlf2iYvBJrSci598UAf0ocwUGfACerUPptVisHAcGzbwTGR585lYeEp4k4EbFmHN4RaytYLhbWFKlams8sJ1Sri7tsjdchxX4A2lS159bYpvdQhvtD5/KH24o8xezzhrcvQ+5Prqnyi89n9JtHrBKiamyxic0xQR0R5U9m+Hc6W0QrefvlN58o51Grl8HkEdVNd7lx2s/nKk8WK8I99/trOXqDFxJOtM/bn5xHxJtFdnU+EnJzzf0taK/KsCBfxKcel7FAUVtLEhJ7knVS3pJMh17bcUqxGIt9Sd5k3IGoLuyqh6n6fPWN++Q//60g8F5HpO7980nzkwrfLtvv+LesaiXfti0JgV3X4acWfYuctd/2x+dCFIn1Rz+ib4aqdsfpjfpY6l7Fd1pDvUFslYu0vVCZpRXTZBTVDnzqKCVD/eExsleUrsWbrjqUXu1yaSPS1zOuVqfPG9sUeX4BaAWlfxGrx1lbQxcr07ZTff/vIF8ynjxQLvRV1/K155PBXzUnVB75/nT9GYtW9ML7/JncvFJHujwCw6SsBXSxwV9j5hLn/tnvMyZHvCiH9oDl85Kla22cX1CxKFmOP4/H/3/gG38DAOANJCuoiOt0gtLxor+74mJAMCTs/ylqIxyfMiWMnzQVvsTBdR9O+lKnFqojS2rGsPgTcllnaHqm7ELu5CUWWfZvKsrwXBpJOytJCWWyvHYv4WtJqW2yZp/3PnTUI71AZYp9srXC2IkoL2UKU1lf+DglqEc3+cG9bdil2AyuAS916Gypfzldl1edGF1Hn+rG2groo8x/cZ8CkHrttimRnb/mUOXG+ENT5k39mPrwrvDKxLq/Nfkw82byFqPwH82v7t9fEtS/iJpfxT+WnpkJCVcR0SFBbO4r6qiHJfrtELMqc4Mr2f6rN/Q6JeTmm89byK6Hp1yu/C6H57TLC7PLX5jqPHrJHx3Q7JW8tij9KJ2JYl6dFvzsuIlvZWfqjdqwQ77ZuKUPSuWPqhUCsP4cpqEerdQc+gSX9I5/C6jJC7cpUn+ZyfZE1L1QmQlKLNLHRbgtRlo+JLZteD/mu0lZRVhGaLm1A/ErZvriV+kWA+vUUYq+qR9K32ZZlqnnAhag8Zo6drLeztaCWqGxgNfKQ7YXvihcYYo87pmzyhbKk+9vHjplvPJXXVjgXP9ZeBoxeRtSOjYaV27rkuO4j3Q8zC+rIS5A2fRNK4+xQfgml4dj4gzg+wScwkD4DgxbUFjARdvafivyFhjWLKJU0/laEXUxIhgS1X79EpQubmj/n1HRxhGwV+ySf2OO3Q4tuSau3vr/EZptG2u6XKb/9skXQlucDq61LW7TIdnVFhLJ9GSLl2a3+dJluh7Y31N86rQho+1DvHuwDIlgEr6SRrRbiusyi/vq3oF3ZKpocK7OwoS6UbXki/qXu0Lel2wrqwr7x72CHytTtuvkrTzr/zyuoRTBJW/RWC7vCzvo3mJ1/lFCzaXyBrW22+74Q00LOlWfFXMPQaamjZqdngwj1WholEm0ZIp51GrsvEWxtt5Qn4lOfC+37PvX9qOvX4l1sqh1TwlvbqgW2tsH3Z6xN8uJCtzd0TNri1+f3o7ZhmfsSGa7NZVZidxpBbVf21uXofT/yLIua6TS+aNd+EUEVi1DbtFbU6HusE2NOOI2LWp22KHM0VzogqG3ZIgal/JAdukx3j59TYIlYlToLcVlEVkVoWtvaCmrxZxs7pb06ohw6pusXO63gFZu0+HVpR0JW0vpC3qXJRtFjJfzFF3562xa/L0TUN81tDuUT/8yydeXN2d+z1Eue9MUIfUgfps6AE9QbGxtmc3OzFkFKvWGp2y+C2he5qbdrWvtF1PsvHKYup2FI9rRlpZw+u/kr5sk8N/ljnzfXZt1EqFP2B7bzTxwGYGAdGZCXM/qlxLx+QFBzLc3LEPlhKFUGnKBO1fhVthtBXdxUJKpu375/9QOvnPmlj0STmyLSq8yTbVuWvcV86sR5k+ePmc9fi5he9f6mfTyYwAAMhBgoI90dR5MR1PAW4o1jcLEODCCoGxZOWiYACOrqBlT6IjJ3vE0/rbOgFiHthl8SmZ75pUwbzkhTXbf4Al/AwPAYKIeCq0XVuuoniXr7Q9y7Kp9yhscTfUKfwEDBAIJ6TkHtz1mWOVH+Vs9lbgNfKSIjK5m3KWOV0jh/nDxhPvOe2aLU6yyoV4kD2sI/bxhIlwGJjPr/H0O/uxyKDDMVM+VK5Xe+cSEvF2WOue1T+rDyOwziCxhYbQacoB7qZ7OAb7Xho3/pXxiAARiAARiAARiAARiAgZQZQFDPGaFOufOxnZsXDMAADMAADMAADMAADMAADMzOAIIaQb2QYV9clLNflPgO38EADMAADMAADMAADMBAGgw4Qb1jxw6zZ88ehBXiGgZgAAZgAAZgAAZgAAZgAAZgAAZaMuAENW8/0nj7QT/RTzAAAzAAAzAAAzAAAzAAAzAwHAaSEdQsnDYcaLiA6QsYgAEYgAEYgAEYgAEYgAEYuMIgqFuG8oGFGwYMwAAMwAAMwAAMwAAMwAAMwIBmwAnqq666yuzbt2/Q4+SJUKcPbnbDYXM6z418czTPHzeHrssmcnfD4dNlHpu3bT4N+jL3s+znzL8+cN7s/eQfm1dkk9trbc2y15h/9RtnzDvuvWh+8Xf+N3NVy3zLbCd1p3+N0of0IQzAAAzAAAzAAAxMx4AT1CmIVRZOm65jh34hWJHcRhgX6b5ljh64eqLwXkabRfju/ewx8+M/ERbLCOrVYncZnFEnDMEADMAADMAADMDAMBlIRlAD0DABmrVf2gjqLLvBHD6dm/zxQ+a6gUZoFyWoZ/Ur+VbrOqE/6U8YgAEYgAEYgAEYGDYDyQz5BqRhgzRt/7QS1NfcZo6dy823jh4wVyOoBxmhn7bfSb9a1zH9SX/CAAzAAAzAAAysOwNOUK+7E+Zpf5ZdZV7x/lNm78EnzU//Yn3Ib+xctm2/2X3XeTc/1s6RtX9v/90/MDuVaCzz/sFXzY9krzY/9h+q9Hu/cML8xOvrdc3ThlheiRDLnGe7ffzQdUFhd81tx8w5PT/6W0fNgavjNqYuqLe+9SvmLQerPpF+lO3eg2fM7s2i/bUh3y//DfNTn6zyveX9+2v+lLRSjt36aXR/+XY0Dz1/i/nUifMmzx8zn7823je6fPb5JwkDMAADMAADMAADMAADcQaSEdQ7d+40+/fXxcdgOnbzS+YXDp43b/vN36yLo5Fw1mLZiek7PUE8yl9LNxLqIqykbBHje53QXpwoykbRYT3cOsuuMbcd+4uxhcT8ec5FunONc6Rjglrq1SLe3x9SxHqaId+/eOdfmbcooV2I4SfNz9+wWeNGuM52fdq88eD5qKDeftMJ9yJH57d5ro0sYpbd/BXz5Oilx2OfvzZYp9TNNn7TxDf4BgZgAAZgAAZgAAZgQBhIRlAPeeG0bBRBHhO5TiifM5u/uqdRvNSj0RLVlMh3PX+ZdsFRalmROxaRFoBEAPvpYsclX0xQy3m7lTLmFdBZts3s+fiXzMMPPxz9+7M7f6Wxj7Rden8aQa2j1q59o2h1bBXvJkHdpl5tp6svu9l85cmcCDWfypuJdZ8nfvMgAQMwAAMwAAMwAAOj71CnsIL2kAW1BWnLvmO1Yd+l8G0RSS7TKpEcOtYnsCJmm4Z5W3uKod7jn7+S4eI6wq3t71NQ63q73m8jbGUYt//ZrGwOQW3bYSPUdgRD0zDvrttLefzjhAEYgAEYgAEYgAEYgIGKARehHrpYtR029G9ly1Bsf2i2/K5BNxriLcO5ZavnRi9bUFt7RRTrIdd+JNoKY33e30dQWz+Gv0M9r6C2fTTNHOoag0RpidLCAAzAAAzAAAzAAAzAwNwMJCOohy4GSgEsEWkrmlXEWey3kWwroLXQLvOq9KFjUsYytlpc6yHYsQj1JBv7jFAPZsj3J//YvEIvPDdnhNr3sYhrf2i5n47f1RtFfIEvYAAGYAAGYAAGYAAG5mHACepBL/iV0lsTF3m2q30Xq3LrRcZsJ8VEcuh46Ng8Hd1FXhHVOurcdq61X3+fgtqvu8vfyxzyHWpH00JnWVas8m1HEbAoGf84QvxwDC5gAAZgAAZgAAZgYDoGklmULIWOlcXJ3vZb95rddzV9RqtaaEzyuLmwA4pQ28jzae/7zyHxXK3o/S1z9MDVrYdMrIqgtlxKZDj2eatFDPkuyqw+zWXtmCTus7d8ypw4n7sh+vmTf2Y+vGtxq8SncL1i43T/LPAX/oIBGIABGIABGICBcQaSEdRDn0MtcMmQ7rEVv0eRdi2gnYg+WIhrt6jZgAS1bY8/PzrP46LZ/w61jYL66f3y9HzrPPDdalkYTQ8xFz8PbSuiupwPrz6PNY2glpW9pRy9td86r30iy/umtePJG1bu++ktnzphzues9O37hd/j/xzwCT6BARiAARiAARiAgckMJCOoU1g4DeAmA4ePlusj+RZ1/tjnzbVqPjf9stx+wf/4HwZgAAZgAAZgAAbSZMAJ6o2NDbO5udl6uO4yOhtBnSZgy2CFOsOsyBzqPH/S/NmHdw36eqcPw32IX/ALDMAADMAADMAADAyLASeoUxCrLJw2LHC4kNPqj5u/8iRzp1Na4BBbeeEDAzAAAzAAAzAAA0kwkIygRsDNJ+Ca5i9PmsuM7+fzPf7DfzAAAzAAAzAAAzAAAzCwmgwgqHnzk8SbH25Aq3kDol/pVxiAARiAARiAARiAgZQZcII65QZgOxcgDMAADMAADMAADMAADMAADMDAMhhIRlDv2LHD7Nmzh2gqEXUYgAEYgAEYgAEYgAEYgAEYgIFBMJCMoE5h4bRlvBGhTt7EwQAMwAAMwAAMwAAMwAAMwMByGHCCetu2bWb37t2DUPgxEBDUywEk1h8cpz9gAAZgAAZgAAZgAAZgAAbWnQEnqFMQqynYuO4wpdb+7JV3mROXTpp73pmNvUx65V0nzIUjHxs7nlobsZd/cjAAAzAAAzAAAzAAAzCwOAaSEdRAsDgIJvk2y24wh0/n7jvG8omt/PFD5rpsXIhOKmso552YznNz6eQ95p1eO7LsleauE0V7V1FU25cFth/z/JI5ec87eWnA/CMYgAEYgAEYgAEYgAEYmJEBBPWMjhuKMFy0HSKm828dNQeuTldAaz+JYM4vHDEf88S0pMuy7eY9Xz5r8vyCOfKx1Wi3bZsV0wjp5b2cEr7Y0gcwAAMwAAMwAAMwsBoMOEG9ZcsWY4dU06mr0ald9mN2w2FzOs/N44euWxk+ClE5WShn299jvnw2N03Cu0tfL7oseZEQisovum7K594CAzAAAzAAAzAAAzCwigw4QZ1Cw1JYOC0FP05r4zW3HTPn8m+ZoweuXglBLSK5rajc/p4vm7M9Do0W0buIoeZSdtu2T8sK6fknCQMwAAMwAAMwAAMwsG4MJCOoh7ooWZZdZV7x/lNm78EnzU//Yn1ocOxctm2/2X3XefOOey+Wf2//3T8wO9Xw4zLvH3zV/Ej2avNj/6FKv/cLJ8xPvL5e16LAnSSos2tuM8fOFRHsIm0x9zgfqAhvG50Wf04rwCXfPNtyjnPDkPRZykdQ8w9uFm7IAzcwAAMwAAMwAAMwEGfACeqtW7eaXbt2DToCOVRB7eDa/JL5hYPnzdt+8zdrPhThrMWyO3anJ4hH+WvpRkJdRLeULWXudUJ7MaJaC2NZhExvtVgWQe0WuVLzrG84fNrk+ePm0HWLsXGWi7qcFz2FUC3zRFYDn8WONnlk0bS8w3oR1PEbYZs+IQ3+gwEYgAEYgAEYgAEY8BlwgnrQYnW0aNiQbcxGEeQxkeuE8jmz+at7akLb74R6NLoQoOWxg/X85fGeotRtI9T+omXzzL3e/Ogh8/UjR8zDDz8c/Dvy6feZbSqa7/sz9ntWQTltVNuvvxg2Xl8lvfaCIiLwJTre1SJiswRQQxQAACAASURBVLbfbw+/+UcCAzAAAzAAAzAAAzAAAwUDyQjqoS+ctmXfsdqw71L4togkl2mVSA4dWwa0bQX1t44eMFcrkTuPoF5UO0WgTjuHuO951Lr9EiG3AnzeedXLbIduE/v8A4YBGIABGIABGIABGFgVBpIR1EN3uAzF9odmy++a/aMh3jKcW7Z6bjSCuvubTOqCetbh3zIne9oXCTVm+bxc4ygTfNX99YpP8SkMwAAMwAAMwEAKDDhBzQra88NaCmCJSFvRrCLOAoONZFsBrYV2mVelDx2TMvrcLiNCzZDvgkcZot3VkG8i1PNf531ee9RFf8EADMAADMAADMDA8BlwgjqFjkph4bQrXOTZrvZdrMqtFxmzPo6J5NDx0LFl9NMyBPWi2inDp6eJ9M6Spwv7WZRs+DfPLvqZMuhnGIABGIABGIABGEibgWQE9ZAXJZOLQBYne9tv3Wt239X0Ga1qoTHJY6PWDPle/MU07QJjsw4TFyZm2coiZnlksbJZyrR5JOLN0O/FczZrH5GPvoEBGIABGIABGICBtBhwgnroC35ZqFIQ1NZOGdI9tuL3aA6qFtBORI9W8XaLmjHke+HzVKcVyH0PkxbRO+8CZKEbsZSNoE7rJh3qS47RhzAAAzAAAzAAAzAwDAacoE5BrKZgI1APA+pJ/dA2Si3iu+tI8ST7FnUeQZ0Gn4vqf8ql/2EABmAABmAABmCgewaSEdRJzKFmJeSFR5i7uAmUQvnSSXPPO4vvfvvllnOn8wvmyMfCafw8Q/+NoO7+Bjr0Psc++hwGYAAGYAAGYAAGFstAMoIaEBYLwrr5t1z0KzJPuYhiXzIn73lnEi8J2vZf2+h82/JIx3UJAzAAAzAAAzAAAzCwzgw4Qb2xsWE2NzdXSjisc6eG2n7D4dPmmWeemfiXf+uoOXD1akRkQ37Qx6yofuTxI+bjXpRaIrmLmMes61/GvkTeLQtdfY5rGe2gTv5xwwAMwAAMwAAMwAAMDIEBJ6iHYMgkG1JYOG1SGzjPRQ8DMAADMAADMAADMAADMAADq8NAMoKaRclWBzpuIPQlDMAADMAADMAADMAADMDAKjCAoGYhMYb6wwAMwAAMwAAMwAAMwAAMwAAMzMCAE9QpRH9TsHEV3rDQBt4UwgAMwAAMwAAMwAAMwAAMwEA7BpIR1Nu2bTO7d+/mrckMb024GNpdDPgJP8EADMAADMAADMAADMAADEzDQDKCeppGzZrWPOtZRv5mLYNIOhfgrOyQD3ZgAAZgAAZgAAZgAAZgIC0GnKDesWOH2bNnz9pHf0VM2+2sICOop7sA3vjFR835E580b8rW41Nds3JFvum4wl+Fv667+1Fz+oH3mZ1cXzPf02GJaw8GYAAGYAAGYKCJASeomxKs07l1EtTbf+nr5q0Hz5u9n3rQvOZVzWI2y37ZvO7O8+Yd914s//be9oW5H9KtmM7z8+bEJ980qIfdH/3Ig+bJPC+/2Z2fP2E++aZJPvpR85EHnyzzuO88t8g3z/U1i53z1KfzFnUPr++0jfPsv+xXT5g9Byvm9x48aa5+4/apOf2RDz1VXjP2+tl7y+1mS0/iNsuuM3c/etEx+cQCRLUuP89PmE++uvkamac/yMuDDAzAAAzAAAzAwFAZSEZQ9xH57UJQpxLtbyuoRUy3Ed7TQJ698Yvm0Tw3f/PAe6cWKdPUM0/aLCtE8iRBXabL/8Y88N7+RUVZ/4IFvPblKgtqEdPXvutVnbGZZb9lfuZz53sV1NJfH/3z8ybPnzAPvG9nh+0pxDpCmocb4YwtLMAADMAADKwrAwhqtchXF4J61UDKfvZe8+aD582b3tPdlIAse6P54qO5yf/mAfPenqJ1s/RLW6Ga/ehHzINP5ksbut7Wzll8EMuzqoI6y/aaf/2758zeOw+bV27p7uXIMgV1ln3U/Pn53ORPPGDet7ObNmXX3W0evZibE598dWciPcYax3lAgwEYgAEYgAEYGDIDTlDv3LnT7N+/f9APRqlEqIfc2bPYVkSyz5qfve71nfGRihhrK1SXHW1va+cs/R/Lk0ofxuyPHV+U8F1UubF2+Mezj/65OZ93J4AR1DzY+IzxGyZgAAZgAAbWlQEnqPsQq/M6eGNjw2xubnYm6kL2rEOE+uXv/av6nM4Jc6G7FtSLiE5LhNjOW3ZzlyPzskV4Sjq7bVoQTdJPHPK95OHrbewUv7dpu5TXlDYkqOXFgs035KH8oWtfjrUVvtnuz5rNL1RzrO386Df/+rvNlZERF23K9ctsmrc97dzsMkp94pPm1REbxQdttghqHpracEIaOIEBGIABGFgHBpYuqLdlmbn9+77PPPE932P+y3d+pznxvOeZt7z4xa2E8zx5Q53bhaBOIdpv217OjQ4IaplfrRch0/t7D84esRbx25XgEhGnhbETjyfqC4mJoNTiWGyJDT0XYanzCDdSrxad/n5XbZQ6Y9smO11fjwR/zUejY37bS59487Hf+MUTtcXjfEEt/gj5Kmb3UI6L2NWM+/t6MTEnfL0h4TLvOiaqpQ5djm5/tudPzNsOnq+JcpfntvrQ83JI+sGHzY/tKIZvl2V7Nuny7X4xl7qbxcMQ1Dwg+XzxGyZgAAZgAAbWlQEnqK+66iqzb9++ViK2a0d99oUvNEef/3zzb1/0IvMLL36x+aPv/V7zj89+tvmZl7xkoj3z5A21owtBnUK037a9SVBr33QeoXZCrrvVoX1hp23X+0W68UXDYscLH7VclGzAEepSbAfmq4d8V6y8Pu4n7Uu7r/OWYjpQh58v9ju78hfNrV86Yh5++OHg35EjD5q7bioE5MbNnw6mkbxfP/RRszljFLYUp1Ouxl0K3Ui+SeUWgnzySuKF8B5PFzuu/W0/oXWxo8XJENQ8NGm22IcHGIABGICBdWbACeplOuC1P/RDNeF85RVXmHPf/d3mrssvrx0P2ThP3lB5COrxm0HXgloLsVAfTHusFHORYd62vCZRKflD0eQynxet9W1sKsNPu4jfTXZKxDnYvtFianJOovg6kh2zt+zHw19xq7W3yRMra0jHJwnfmK2loI5EiSeVKxHqpmHetm471Du0YJoMF49FyG3eLudRdxntjvmU4+P3Y3yCT2AABmAABmBgeAwsXVCHoPhPz3ueufuFL6wJ6rZDqUN5Q3WEjnUhqJcZ7Q+1KXZsWRHqUoh1+O1pEY0y5Nr/trUIRTkf2oqo1P5qEqq1dEOOUDfYJn4TMez/1m3094t+rL7VLWX46VL7PUn4SntkiPfY0PAZBbUtV0SxlOmLaxHtcj60XaSg1t+dZnXv4f0zFzbZ0jcwAAMwAAMw0C8DgxPUL3/pS81/e85zzHt+4AdqgrrNUOpY3rZQdSGo29a17HTLEtRFNLe7Id++H0UUWtEsIrkUxlMOSS7zrWqE2hPb4rs24li/GLHDxLW//T5p8zulId+yIJj+TrWI3VD02La/rVAXX2lxreuJRaglX9O2yyHfRKj7/Ufd1K+coy9gAAZgAAZgYLkMLH0OtQbgVS99qfnr7/ke8+hzn2u2qe9D2zSTBHVTXl1H0z6CehzGrod8TyPamvqq6VyojrZzg3W5ixDUEtntcvGuJjslOu8vPmbbWdhSzZduKkf7pcpbvRjpQlT7dSzj9yThGxPOsePShknlSjq9FVGto85t51rrcmS/SxHMHOrxe6X4mS2+gQEYgAEYgIH1YsAJ6klitQ8oXvsv/6W59F3fZf7yec8zO9SCQi/LMvPh7/9+87/84A+aQz/5k27/NS99aS16Hcs7rd0I6nH4OxfU2RvNFx/NTUjgTdtfNr0VchKJlvw6eirHRGRPI2TbCsy2c6ilPBvN9Yeli52zbKXcWNtExOvIs9isj9m65bjfPxNX+c6KBdzmjVTP0v4u80wSvqVwPlgtDCZ57BDsWSPUNvKsI9G2TSHxLHXtVat8t2k/n80av7e18Rtp8BsMwAAMwAAMwMAkBgYhqPf84A+af/iO7zCHL7vMbFdi2hpvI8/3XXZZ7e8n1UJmTXknNd4/34WgHvIcahnmHZp7aY+99SO3GPspMu2XrgW1LTskeHWd0+yLmLRCTv7yvIq66rJCaZ24VUO6Y2nKsgPDxkWE+sJe1y37Im5j4lfSTdpOa6fYWLajcRG34qWHpLVbv22hPpRouE3vC/VJ7RnK+VKwRlbrtnZKGrmOZK6zPxzbTyfpZasjzyLU5ZzdNolmGXbeNn2XC5I5H1x3t3n0Ym6YS81DxlCuXeyARRiAARiAgWUx4AR12wW/FmHktS95ifkfz362udmbM92mrnnyhsrvQlAPIdofatuQjonw8qOgQ7IRW7gprwoDZXT6iQfM+3bWX5jN2kaGfHN9zMoO+WAHBmAABmBg1RhwgnqZjTr53OeOrejd1p558obqQFD3d4FLpDbVSGaIH471xw++bu/rYu70E+aB9+2sjT6Zx4cI6vb+n8fP5MXPMAADMAADMDB8BpYqqO03p//7c55j/uPzn29+//LLa3+3f9/31R7+/KHU0+RtC2IXgnqZ0f627RxKulVZyGoo/sSO4d9w++6jYmXv7odmyye08g6j3n37hvq4XmAABmAABmAABrpgYKmC2s7X/doLXhD8+9Jll9UEtT+Uepq8bR3VhaBuWxfpigvYLnb16AMfNW/KMjNpXrCe07tqw8VlGLxuY2yfqD43/zb3DxG9TzzwPrPTWxuhTf5JaWQoueU0z0+YT766m+Hkk+rlPPzDAAzAAAzAAAwMiQEnqDc2Nszm5mZNwA7JSGuLL6gXYR+CmotzEVxRJlzBAAzAAAzAAAzAAAzAwGoy4AR1H2J1XoD6GEqNoF5NyOdlj/xwAQMwAAMwAAMwAAMwAAMwEGIgGUEdMr7rY10I6h07dpg9e/YMOtrftd8oj5sLDMAADMAADMAADMAADMDAOjKAoL6iAr8LQZ1CtH8dQafNFef4Al/AAAzAAAzAAAzAAAzAQDcMOEGNMwtnIqi7gQqe8CMMwAAMwAAMwAAMwAAMwMA6MJCMoO5jKPW6COo+fLkOFw9t5J8EDMAADMAADMAADMAADKw3A8kI6j6GUnchqFO4oPr2pfVrCn7BxvW+GdL/9D8MwAAMwAAMwAAMwMC0DDhBvW3bNrN79+5Bi56+ReC0jkwpfd++RFC3vzFl2c+bzz+WG/0N6ie/cvOgr81lsH/LkQs1H+Un7jKvmPCt5Sy7xRy5UPdtm3x9tC975z3m5KXKtjw/a768f2Pl+v2d95w0lwbUthATJ+56xcr5vQ+GqaP9fR5f4SsYgAEYWC0GnKDuQ2DNC04fNhKh7g5u7UsE9Wx+zX7+8+axPDcI6rj/RBBNEsZlurNfNvs3skELpmWJTvuSIs9PmLtesTj/LKttbf7/ZLccMRfy3CCo49dbGz+SBv/BAAzAAAysGwPJCOo+OkaLwFnrSyHaP2vbpsmnfYmgnu3GiqCe7LdSKE+IUKcklpYlOhHUCOpp7vGknXx/wkf4CAZgAAbWgwEENZ/NWki0DkE9/w0EQT3Zh20F9bJE6iz/SJdlK4IaQT0Lr+SZfJ/CR/gIBmAABlabASeot2zZYuyQajp7/s7uY2h6Cv00q6DOsneYn/zEfzZ7Dz5kfnRLfehp7Fz2U18w/+aL58077r1Y/r351/6tuULNqS3zfux/NVdmt5if/UKVfu+d/7v54SvrdU3ycbbrw+bBJ3OTP/kVc7Oqx+aLndv14QfNk7meJ3venPj9N0evu1US1BIhlrnhsaHFWfZOc8/JS7X50We/vN9seD6W/lmWoJZ6pT12GxsqXAhk1e8Thp23EdTTzCFvqt/vF90eux+ayz3NfG+/7liZ0p+xrdQZGtofO+fXHWqLrk98EetHSSvpmriUtGzn/5+KD/EhDMAADMDA0BlwgnroRlr7NjY2zObmZlR8DKUNKQjqPnw5q6C2/fiy9/yFefvB8+bn/qfttf4W4azFsjvmCWLJX0s3EuoiuqVsKXOvE9rtRXWW7TIffvBJk+dPmq/cXM9XCOe6WLbHTp/4ffPmkTCs8tfTaY5XRVCLsNFCxYmg4/WFxESk5kpwxsSS+KnMExjyLfX6IlF+TxJYUoe/DdlUvAg4Pjb/uIj6VguMyQuD2AsFW1dhd5VH1x/KX/pA+c3mqdLWy7KC8JuBlxRtItQhMSl+rvXv6MWI7stJbdPt9PertozP8Q75yx47rdpY5a/7QtcjbdPt0OftvpTjXgx4/vbT8psHQBiAARiAARhYDwaSEdQpCFV70aQQ7e/Dl/MIaisQbATZF7mFUD5pXn/t1prQ9m9W9Wh0IXbLYwfr+cvjnij3ywz9DgneUiifP2F+/811oe2XIZHs2KJjofL9Mib9zrKfNh/43NfMww8/HP27+zd/stGfk+qYdL6NULNlFMIoJpjGj9s8pZgMCGptV0h06fPT7LcRXs620crdvkATQe4fFxuabC3qHheFoeNt7ZR6J/WTiEk/Shw6HmtD7LjY0LQNtaesu4W4neT3UPkhe4o25IYI9Xo8JIUY4Bh9DwMwAAMwoBlwgnrr1q1m165dC32o1pXOst+HCJzFrhTz9OHLeQS19elrPnKuNuy7FL4tIsllWiWSQ8fm7Tv5xJUe9j1JJOs6Je15FbmunV+RVb5FgDRFZUthFBDGTUJnKYJafeIqJoptPxbtHn8RMMnmJtHpRG9APIpY1CIvllYzpvcnCurICwJbhp83VndT27Qtof2Q36TdTf0gZUla7SM5Z7dNnOl07PMQBQMwAAMwAAMwoBlwgroPgaUrnWU/BRtnadcy8vThy3kFtQzF9odmy2/tNxniLcO5ZavnRi9CUFsbiuHd1bBv/7fYKZFrGW6st6suqK0PRKxIu31xLWJJzoe2IdEk+fyoqfhdtvMIOSlDb6VebadvnxWV+ry/H7M5Zqu8dPDL0b9FLEpaf8i1boO/74ti/7zfh7peuy992lR3rG1+XbHfRf7qJYX/W/KJDb6N9rf4SNLKVtrn96OcZ8vDEwzAAAzAAAzAQIiBZAR1CkOprYNTiPb34cu5BbUsTjaKSDvRrCLOArONZFsBrYV2SDyHjkkZ82wlymyHbYto9gVyGcn25ltLXj+92LMqQ76lPbIV4aLnMIsAiolMyetvRdhOyjevkPPr1b/FBl+sxcSezhvab7I1Fvn1yyn9GYhm+2nl90RB3RChljLstqnuprbpMmL7EmW2olfq8QWy9IcIfClL8vrpy/N8h3rQo9Skn9jyMAsDMAADMDA0BpIR1ENzXMyePqK/sbqHdHxeQW3bUkSe7WrfxZxqvciYPR8TyaHjoWNd+EtEtBv27YZojy8yFhPOseNiVxeCWsoa2lZEtY4GThJ0oTaU4ikwVFynn0bIWTtcxHVCmbr8kB2hNuo8sf0mW5vO+eVNk9bmneT/UBv9OuV3qKwyfz4+B1zyTdqKiHYvUJwAHi8rJpxjx6XOtv0l6aaJ/ksdbHkIhAEYgAEYgIHVYyCZOdSpwIegLi6SLgS1fQC3i5P93PvuNf/mi02f0aoWGpM8Nmrdx5Bvy2UhfJ80Xz/8oHmy6TNaaqEyEctWuC0yQr3s66YQQKfNl/dv1KJfQcE1ioBOI1RKkTZB/LYVl1KeE9R5NbRY+9GWpVeQdgwEopul+JtSQDbZKvb50Vdtn+zH0lpBGFrlW4RiLIJryy1sm7wgly9exZYTx46ZC1P6Q9oj28LOE+a+wyfNpUC/S92aI2mbP4pAyrRbSaNf8ujzsi8vXGxZk9JKHrar9/BEn9KnMAADMAADwoAT1PJjyNsUhlJb/6UgqPvwZReC2vpThnT7K34Lq/ZBvfZN6dEq3m5RMzVEfFERamuHDOm2D9iTVuy2aexf7sT1z5vPP5bXBLUW2pJWtnk+Hv0WPwx5K2JK2uHaHxmKLCJUp/XTh8rT6UOCsEmk+r4TwdQ0jFzSSL16+LpfnohQSeva44nKUBpJHxLPfv1FmeEXAH7apnaJqKzqjkeAJY1sfb/rssQ/xbHxMn2fNf3W/R8TtLpu5xvH2y3myIX6ywA/nbTF5fH6SGzS9fttljRseciCARiAARiAgfVhIBlBnYJQtRdOH2J13gu0D192JajnbSv51+dmRl/T130wIC995CVBH3VSB2zDAAzAAAzAwHAZcIK6j0Wq5oWgDxE4r42p5O/Dlwjq4V70qXCKnTA0RAYkqt0U6R+i3djE9QQDMAADMAADi2HACeo+BNa8HZiCjfO2cdr8L3/pS82XLrvM3PLP/lltfmpTOduyzPzei15k/v6Hfsj8l+/8TnPiec8zb3nxi1vnbypbn0NQL+aC1T5mHx/DQH8MyNxsOxw8NtSc/uivP/A1voYBGIABGBgKA8kI6hSGUttO7SPa/5qXvtR8+vLLzT98x3eYbz/rWebjUwjqz77whebhF7zA/PrGhvmFF7/Y/NH3fq/5x2c/2/zMS17SqahGUK/mTU7PH9XzTUP7zC9dTQa6+uclkd4QO/oYQ6vhqCvmKAeWYAAGYAAGFsFAMoJ6EY1fRJl9RNJ/45//c/P0d32X+XcvepF56ru/eypB/dof+qGacL7yiivMue/+bnPX5ZfXjs/rGwQ1N6x5GSI/DMEADMAADMAADMAADAydASeoNzY2zObmZqeCaugNX5R9fQjqnVlmrBC2bZhWUIfa/Z+e9zxz9wtf2Gn/I6i5+YVY4xhcwAAMwAAMwAAMwAAMrBIDTlCn0KA+hlJ34Yc+BLW2cxZBrX1p52H/t+c8x7znB34AQT16SaH9yz43fBiAARiAARiAARiAARiAgRgDyQjqvoVqzGGTjm/bts3s3r27U3HaVOcsglp8+aqXvtT89fd8j3n0uc812zoWk0Souek0ccs5+IABGIABGIABGIABGFgFBhDUHQvJvqEICeqXZZn58Pd/f+3PLmQmtllB/fFf/VVz6bu+y/zl855ndmRZeU7SzLtFUHODnJch8sMQDMAADMAADMAADMDA0BlwgloilkM2NgUbl+G/kKC2kef7Lrus9veTajGyX77ySvN/P//55vBll5ntCxDT1g8Iam5+y7geqBPuYAAGYAAGYAAGYAAG+mQgGUHd91DqPjthnrpCgrqpvGtf8hLzP579bHPry17WeVRa14ug5kameWB/dXk4cPSiOXv/TWar93Iuyw6YoxcfMXds734EDDytLk/0LX0LAzAAAzCQGgPJCOpUHNt3JH1aQX3yuc/tfEXvUN+kLKizA0fNxTw38i3cPG8nCqywkDx22zZfyH9dHsuy682hU0/XbAsJoC7r1GVdf+iUeVr78+z95qatiCztI9kvRGjB3iN3bF/oSy+pc56tZd5+J/r+m7aO2SrX0VCug3naSV4e7mAABmAABmAABmIMOEG9Y8cOs2fPnrEHolgmjseBGrKgtp/a+u/PeY75j89/vvn9yy+v/d3+fd/Xaf+nLKg134VgmCyom4SFLm/Z+9n1h8ypp/NgRHHRtomwzwcsqBch/osyw6LT93lKgloEc5PwF97yR+5Y2PQS34f8jv9/wjf4BgZgAAZgAAa6Z8AJahzbnWP7FtR3XX65ede/+BetxPC2LDNfe8ELgn9fuuyyVmW0ZWWdBLWIoBREgwicPiPUwszQBbX/8qS0t+UIBWmnv51GUPt5h/p7GublJUWT8B5qO7Gru/+N+BJfwgAMwAAMrCoDyQjqvoXqrB2+sbFhNjc3OxWns9oSy9eHL9dKUC8x6hvr49hxBHX4n1kRbR2PIk8jHGM+X0VBPU2byhcTAx6ZEOs7joevF/yCX2AABmAABmCgYgBBnfhns2aBedUEtYgePX85Fg2TaJmknTT82I9ahvy9CJFq6xUb3XzsyJBZqVvSxuazit2SvqsItZTXpv42wkrSSHl2G7N1rC8Dc3nFPsuDDFGWsqVcqTPGgs+A++3EoV10S821V30k9Updoa1m1E8/qR/H2z4+LaGNncKF3bZmzi02lptpRmS0EeDig2nK1fazX/1jxxf4AgZgAAZgAAb6Y8AJ6p07d5r9+/evfVR1XcBbJUEdeggvBNLxsdWFC2FURSFLIdUwpLfIMy5WpN6QUJJjItim4SpmkxUkx71FqkQg6npEaGmxpusXu3UefX6afalLl+VebnwzvOhY2bZIpFJejGhhK/b6IsvWfVqtLF2W7YlqyW/7RC+OJbY7oT1BIBZpK2608BQ/Sz2+ndaffv5JPm5KX7WzYrI6Vtlo62iys95nxaJ12j9it8+cPS5tlbZPao/Oo+v184m9vh1+On7394CAr/E1DMAADMAADExmwAnqPgTWvJ2RwlDqedvYV/4+fNnXkG8RlZMe7mMiIHZc+iImqOW83UoZTWJBp2/aL0WlinaG0pciyksXOy5ldGVrWzulXrstbYsI6kJIVkJR8saOy3nZSts0C3JMi3Rnix6mr/e9Tz+5tKNV36VcEX7yW+qP2dkkkCWv3jaln2ZoesjOUB9M25cxG3Qb/P02dci1HHop4ZfH78n/3PERPoIBGIABGICBfhhIRlCnAkQK0f4+fNmboB6JIRuB9AWObmdM7Ex60O9fUFefuGoSFiIUQ21uslnyzSv+ZxNVo0hoQFCXQs97QWD7UIRWqK26j0NtCx3TeVz5MwjqUBQ15pMmgezbYn83pXd9G/CfzeefC3FQ+lmVIcdcFD/gf9/GJvv8tPJb6vBfbMh5tv38w8fP+BkGYAAGYAAGumfACeqrrrrK7Nu3b9BDvlPp/BSi/X34si9BbdsioliGWofEtRUX+ry/HxOvIVHi+6+NaPPzTPrt2+vbJyLTb4f8Dgk+56sJ4nGSXXK+a1EV6kNpi2y1oBaBJuf0Vr8saNM3Urfv41hbY0xIn2g7bRnT+iqWXtocE6W+Xf5va0tTGZOYi/lDjjdtm+ptyse57v/p41N8CgMwAAMwAAPdMuAENU7tk1JdswAAIABJREFUzqkI6sKXfQpqza+IIyuwtLAqRMr4cGKdN7QfEiV+ujaizc8zzW8ROlpISZ2+eJtUruTTvpmUJ3Q+JvpCaeVYk6gqz7WIkEof+y8NQm0LHRN7ZFvWraK2cs5ufQb835I25pPYccnnb5vSu7oDdobaELIzlM6v3/62ee01pJmTdLFIvJwPbcs+a9G/ofwc6+5/FL7ElzAAAzAAAzDQLQPJCOpUhlKnEO3vw5fLEtT2BhF6eI9FDyfdUEKixM/TRrRJHrHDF4NyPrb17Qi1MZZXH29rayHq8qCgsuW1LadWdxYf8m3T+W3UefV+rO7Q8dAxXZbsx0Ss+Fm/gIjZ6Y4HxG6sbKnb3zalj51ra2dbQW1tirWzrU91u9rkkTTTXhu6Hva7fUDAn/gTBmAABmAABiYzkIygJvI7uTPbAt+HL/sS1FZg6NWerQ9EtOrobSkkvFWgJ/ksJip0PhECWnTp83rflifDk7V9ksaVdbq+SraIJX9IciGu8lokXsqJbdvYKr5yEcoGf0lbdDucrbOu8j0ajh6Kiur2SBt0Oulzf2SCpJ3UN6WP1Yrv4gddj7UjxIT0hfaF2Cw2+P0n5/1tTDTbdI12Kttt2pCdoTY5+1oyV7NhimhzU5uk/eJDvw/lPNvu/gfgS3wJAzAAAzAAA90xkMwc6j5E4LqA1Ycv+xLUts9E2IlQbfqGr35oj6X3y5N0duuLK1u/CKZJos2lHa0Y3RSF0+JQ6o6VLXVLOtnq9LE0kjYkAsVPofbq68S31W+XCDipy9/6IjOW3rdjrF4XGS6+Cx1quz6m7ff3/b737bPp/TS2TX67/XJDfaD9Lv72/RMqO+SjmJ2+XZJ3kj9tvU0+K+ytf6bLb7P8jtUp52Ur6VybpxDrkp9tdw8G+BJfwgAMwAAMwEB7Bpyg7kNgzdspO3bsMHv27GHhtCvad27M5334sk9BHWsnx+dnBR+O+9AKal+orpufykh5C+ErLwv0C4SYv+RlRZu0sTI4Ps4sPsEnMAADMAADMLA4BpIR1KlAkMIc6j58iaBe3EXbR/9RR7z/ENSFb0QoN0WyJTIfiqD7jJVpA/PQ/bT8jvOJb/ANDMAADMAADPTLgBPUfSxStS4dm0K0v4++QFD3eyH30afUUfQpgrpiuymiXEaxJwhkSTdpmDn8VX7HF/gCBmAABmAABobDgBPUdEh3HYKgLnw5q6CWB3T7cN30588BheHuGMaXzb5EUNf9c+DoN83xO240W7OsNiWnmOc+/afq4K/uX/yBP2AABmAABmBg2AwkI6hTGUqdQrS/D1/OKqi5YQz7hkH/0D8wAAMwAAMwAAMwAAMwUDGQjKAm8lt12rwA9+FLBHV3/TVvf5OfvoABGIABGIABGIABGICBxTDgBHUfqz7P24F9iMB5bUwlfx++RFAv5oJNhTHspP9hAAZgAAZgAAZgAAbWgQEnqPsQWPM6M4Wh1PO2sa/8ffgSQc0NtC+eqQfWYAAGYAAGYAAGYAAGlsVAMoJ6WQ6att4Uov3TtmmW9AhqbmqzcEMeuIEBGIABGIABGIABGEiJAQT1Fd0Cm0K0vw9AEdTdctVHn1EHfQYDMAADMAADMAADMAAD0zHgBDVOm85pTf5CUBe+RFB3x1QTb5zDz1l2q3nowhlz341X1j5bBRvt2Miuv9ecOn2fufHK+me/8F87/+En/AQDMAADMLDuDCQjqFMZSp2CoO7DlykL6uzWh8yFPDd5+Xfc3L4x+WH71ocuqDw2f7t8i74JZdn15t5Tl2q2nbnvRnOl993gRduhy3ci5lJu2thR+HUYvqy1wQnZgpPjt28sRcwWYjo3Q/4ue3ldHL/dbCyROd13ev/6e0+ZS/ZaP4Oo1n5hnwdkGIABGIABGGjHQDKCOgWhmgp0ffgyZUGt+/HA0Ysmzx8xd2xvFtSFaDhr7r9p61KElba5aT+7/pA59XRuzt5/k9m6RHEzjR2xPpj1xUeTfwpx1S7am2UHzNGLuXnmmWfMI3dsX0q/F9xN5rOpzdOem+ZliC3b9p/1Uf7IHWb7Eplramd24Ki5mLd7wdNUDufaPXjgJ/wEAzAAAzCwSgw4Qb1t2zaze/fupTwQtnVmHyKwrS2pp+vDl+skqMso4YAFgzA7jZCVPIvYTmNHSFCL8NUvMA4ctSME2onhWJuuP3TKPJ0P/8WItV9eKPQt5qfpu5ifh3i84Gw+fobYLmzioRUGYAAGYAAGFsuAE9R9CKx5OzIFG+dtY1/5+/DlWglqOwfz0vKjvm34GYoYmsYOX1BLhNQXknZo+yE7tH2OobupCOpyGP/Z+81NW5tHT7ThYpo00/TdNOUuO62MOMgHOjR92f6h/sU+jOFf/AsDMAAD6TKQjKBOBbKNjQ2zubk56Gh/H77sU1CXEeJyznNuYnNay/mSknaC+PLFXMh3ixAY5bxTsTPykC/isprv3Rxh69LWkN9jYmTczmLucWjo+VjbnQ+qYc1Nw5wLQVz5oOhvO//am0eu+j1mW+XTOk/j6av6QnyMMReYW+/a5GyyC4yp+fuxfh/N8/dfKvj1h/rIn7deRLqLNtR9X81bLwW88BjaKltD6f16ta3jPq373KZtY2dzmc39ZPMW13vVbl2e7MvIgKb2SFq26T4c0Xf0HQzAAAzAQFsGENR8Nmsh4r8vQV0+iKvh1kWk8tjYQmKFWDhTznMu0tnFuuIP0DFBXdYbEhajY7M8cFdCpBKQ9mK2QvGYt/BV+WCv5kPbdHaBpdgLha4EdSHUjtfmlss8VF9Uh4Znh+woxd/x+lxb3QelfyKRWbFB2l8I7EKgnhn5yUUirWhVolpumEX69kO+m9KXtqo5+BVzdXFXtHG0wNloPrbzUWThtsKndUakDbIN8WH94xbc0+J3NH/YvUAY+b6yc/zaCPWd1BnaTkovLxz0ywHhWF9D0rdBO72+DLY9O2Ae+mbzwmNSh/Djt6fq0zA/fnp+8zAGAzAAAzAAA6vPgBPUW7ZsMXYYMB0+f4f3MZw6hX7qTVC3jdSNhmXrh3brR3nYjz1AazEX87uUEYq2xvLEjpeiUr0gCKUtH+y9dIUQetr4olbK6NJWKVNvnb+UuJEXD75vQnbEIs+6Dyb5R8oVISaCeqx+JyLrota2o0kg63bKflP6QtSNi/PQ0GLbRn9xs7IvlT+lXueryEsFmybGhz1X2Fy1XUSkv2iY+NK/NuS471Oxzd82pZf+DJVV9Hsl6GN2+u1xbXQrd4/73rfN/y22Cj/+eVe2m2efxhSPkP0cm///PD7EhzAAAzAAA5oBJ6j1gaHupzKUOgVB3YcvexPUo1WrbdTKf/DXLMcieiFxo/NpMaeP6315CA+JAp2uzX4pomyUW0UR/bwiVP0XBDadL0R03i5t1eXKvl93VFR6q403CUDdB2V/eS8SpH6/fTHBK+l8ZmLppXx/25S+SfS6NimhrNsodZQseMK59JV3XPLZbRMffttFqPosia99cSn52/LelD7Gh2uD99IjZmeoDyTttIvUSZubrj3tZ/Z5oIIBGIABGIABGEhGUKcgVO0FlUK0vw9f9iWorc/Lh2A1/NoXSkX0U81NVWndENKIQAsJHf/G2SQY/LRtfxf1Kns9cS1DWp3tflvc7/Bw4C5tjdtQ1V28yBiPFPp2SKTSj5Jaf+k+KEWmEqPap2KTiMOQ2LLppX5fLMbS6zr0fiz9JNFbtKmKvuo2SvllWz3hHDsu+ezW90Pt3OhlhrRdxKf4TNKW15XPnvcyRNLHtuLrkACP8WHLErvkWpbfvp3RPlAv24rrpIrKR20dfQotxGEsD8d5kIIBGIABGICB9WbACeqtW7eaXbt2DXrIdx8icF0uhj582aeg1v1WigDvm7LFQ3cl9HSepv2Q0PHTNwkGP+0svwsb6nM2pU5fXEwqX/KFxM2kvPq8zHv1y/H9NUnsSP6y3wIvNvwyi9+VGB23qxLw0fojUwVi6XUder8pvbPTE8M2b0hs+22UdIdOPW3yQBmxssU26ecQH77YjglViXJLH/ll+8flvL8VW0Lpi7qr/tJ5fbEds7OpD6Q8sWHSSJZYm6Uctuv9wET/0/8wAAMwAAMhBpyg7kNghSqf5lgKNk7TnmWm7cOXyxLU1q+lOFORNXkYl2hXW/+HhI6fVx7WQ4JhLO1IyDUthObnsb8LOyoRGWpjKJ9/rK2tIphDC3fZMtvMd7bpYn6XEQPiszLq6kWeReDkemGv0SJafl+WQlWJ8pjYKto3/oIllt73o/xuSl+cG4+KSjRe2m7LCnFW+iQgqGNli11NfPhtlz7yxXchvMfFbluGSlsaItpSlkTLJY/d+kPmY3Y29YEur6kuSee/bJDjeitpYteGTss+D14wAAMwAAMwsPoMJCOoUxhKbS+YFKL9ffiyL0FtxcHp+240V2bVt3jlgVcLhFKc5OMCp+lGFxI6fnp5UNcCyU8jv0VIxiJlTkCerq9ELALMH4ZaCInchMSI1Odv29haClM3dDzsr8Iv1bz1ep5KqJZ+V0LZ+eD4MXPsYn1hJxFMIpQLMX3GHD/2TfO0FtTue9NPG39+bOHbqm7b9pDYEj5C/SX+aTuHNlS++LwUtWoV+cpPdTtDnJW+Cwhq31dSp96G+Ai1XcqqXS+jRfx85mz5pV2qXbpef198GvK3TeuzZI/JC52aTaMXKfqYS+sWCasLf8uCcCT2FGXW08k52YYYknOyLdKMVmT3Vt6XNGxX/+GJPqaPYQAGYAAGhIFkBLUYPPRtH9HfofvA2teXoLZ1HXjogqnPJa4+jeX7yooM+1kpP/19N15ZTnnQD8z1dPVh11L2JMEg6exWxIuOuOrzRZqHik8bKTvlk09jaW3075LfnrrIrqK84+liwl7EWGi4sbOxFLVVmcfv2D4SsHWx6ISl+rZy0ZYD5qgnqG259f4pPstV2FIvczyt7Zv7zU1bqxcrkuZp5ceiP+N8uLYFfKrFmYi9MTZcPdUoAleW85P9NFvlp5BInVpQi//Viwpbn/9neXOfySrrH297xaSyMc+NL1x12YWo9tqlR4SIIC/rrZet/WnLrfe7TTve32Knb1fBR10oB+0LlFlv0+gb4GqEgz4v+/KixK7KPs3LLMnPdpxTfIJPYAAGYAAGUmYgmTnUqTgZQV3cEPoU1KmwgZ39/7MIia1V6QcRmL44nbZ9Uo4vVKctJ/X0xYu0ujAPtamK0E9OG8rPsf7vA/gcn8MADMAADCySASeoF1lBV2Vv27bN7N69eywC01X5XZWTgqDuw5cIam5cXV1T85Sz0oJaotRTTmPw/YmgrlZFjw1L1z6TYfOhkQY6HfvcA2EABmAABmBgPRhIRlCnIFTtRZPCHOo+fImgXo8byND/UayyoLa+l+HH0y5yp/tt3QV1OSVi0lBvNYx93aP5mh/2udfDAAzAAAysOwNOUPexSNW8ju5DBM5rYyr5+/DlrIK6cf6yno85Ye5oKn2BnYv9J7Tqgtry40T1N4+bO36lWgdgGq7WXVC7OfGBhd+m8SFpF3sd41/8CwMwAAMwMGQGnKDuQ2DN64QUbJy3jX3l78OXswrqvnxAPdyYYQAGYAAGYAAGYAAGYAAG5mUgGUGdwlBq2xkpRPv78CWCmpvTvDcn8sMQDMAADMAADMAADMDA0BlIRlAP3ZFiXx/RX6lryFsENTe/IfOJbfAJAzAAAzAAAzAAAzDQBQNOUPex6nMXxqZQBoK6uDAR1NygUrhesRFOYQAGYAAGYAAGYAAG5mHACep5Cugrbx/DlLtoSwqCug9fIqi5MXVxPVEGHMEADMAADMAADMAADAyZgWQEdQpC1XZ0CtH+PnyJoObGN+QbH7YNm0+72v+Z+240V2aZoa+G3Vep9o9d3f00jHF9XcH1leo1jN2wOyQGENRreDNFUDffhLJbHzIX9Ce68uPm9o3JD/bjn/xql2/RN4Qsu97ce+qSyVWbhi5WQjbnA/lUWtHPw+jbNuxk2a3moQu56//jt28M/gG68O9Zc/9NW6O2ltfa8dvNBqI76qc2fKxjGn1/Gfq9cB37hzY3P6PgH/wDA8NjwAnqPgTWvJ2fgo3ztrGv/H34clUi1AeOXjR5/oi5Y3uzoG4jAvrq36Z6susPmVNP5+bs/TeZrQMVItXD7mS/N7V1UefaMiH1u+8cq5cZXbwYKMo8Y+67cfK3p913qi/m5plnnjGP3LF90OJLXmZNstP2gW1P/sgdZnsHHOuXDnkHIr1kuIOXQDXbNEctX/QJh4veZtffa05dKl7c6Jd3XfC+KNuLa7nddbQoGyh3eA/G9Al9AgMwMC0DyQjqFIZST+v8ZaXvw5frJKjLB96OHu4XyUUSgnr0YD5U0T+NoC5etFQvBqzQOuRGC8wX4b7+0CnzdN4cxV0kR4soe5nXUSHkHzFfOmz9Ol/fWN8U/fy0yc/eb27a2vwybpIv5YWI//LgwNELbtTBUCKsoXtLxXtuhjg6ovRtBy8+JvUj53lAhwEYgIHVZSAZQZ0KhH1Ef1PwxVoJ6oELQM1L6KFXnx/Cftso5bJsbSuoi3aMi97yIX6OSOgqCuoi6j7urz762b34sC/EDhw1F/P5xV8fgtr6ZUgR1ti9pfRFBy8qFsFC1lGfL8I2ylzdh2/6lr6FgdViwAnqjY0Ns7m5OeihgKmAh6AuLpA+BXUZ2VLDIWPRkGmH37YRT7EHyXmYLeeISpsi4mt8mGXz8MWubJV6rZ9FAMswz1DEzE+TNzxcywNu07Bf5x8XVfLnh49HF+0Dfds55G34qJjwylV9VNYZiVAWZVS2Vu2p5js7f+oyY0NqhRFPCEofSb/keTMbY8x5UbuyTdYmz5ZQn1v+x8pU7dHXR3kNN4zyKOtX7Y3Va8tu236p2/IWe9khafzh4FKH2DHGj7K16Ieqz6X949dGvZ9KmwK+kWtF6i993vra8HjL89picNK+2P1Un2+6txQvgMZfVIz7q+6f6roIR/n1eW1Lvdy6P8Xvsi39G2FT0hUsN5cladmu1oMy/Ul/wgAMTGLACepJiTjfHiQEdeGrvgS1PETp4ZD2wfvQqWNjC4nJA5EsdlSks4t11R/iNO+VeKo/0JX1jj0wV3MI9UOuLrNpvxIN1TBhm94+kB7zFpSSB/Ezaj60TXfJE1a6vqaHXp1u0r6UIyJB5piH6peHWy2Qi+Gq1cOptKUSf5Uf5Zh+qC/6pUgj7S8fjJUQLIXQmWrorbPdzvX0HqB9PqwPsgMPmW96KwG7us+eNqcv5eb4aE6ylCl9XtYbEEG23EJgVO3X7fHL9O2s8reP5hb1hdOXtmofZQfMUbeQWXVtFNfL06PF7c6Ui4ZZUWcX8dP9Mw3Hzs8jga4Zscdjf8JfbFqA8CRsuDqyA+ahb95nbrzSu5bdIoSVb1xfKIYk79GL+dic7Zgdpa8iL1SkXSHmZCi3+LPkOsCS1K8Z0SxJ+8syVLuCPhr1pZQn5QvXYrdspQz3MqJhfQZf+If4KHxm78f+dVExKPXabVnGyMdiq7tfKJYLf4bLkPIKn8XT6Pt9zBdSFtv4dYtv8A0MwMCqMpCMoE5FqKYQ7e/Dl70J6tGK3JMexOWByE8nD2Hy8Opf6MWDVl3c+mmkjNjDvZ++6XcpbgIPzzpf+TDppSseSp8eE4uStytbpRx/jqgcl4dOaY/vG3nAl3Rin93Kw7ffVzqN7ZfQIlv+g3Eh5sf7rxCY1QN06c8JAsjaUNSR1xb4Kv0+EizCm99uaYO0UbiLtce3U/I3CWRJo7dN6WM+Gu9L+6LKCupKfNo6pC9FhBXHRpFPj09tk94vhFm9XH3e3xfbYv4t2tSuPCdqVb8XfVOJOlt32UavPTE7Sh5UueNtKBbx8jkv8wpL9uVGQMzX7FJCOcaSvjZK3r322DILVor2S7vFz8K1cFv4qvBzzBfOzpHYFkZi/S31SbrClur6dX1V+mXE46gNUv/YPanFkG7dZr+fCj+H2Q+l5RiCAQZgAAbWjwEEdUMUZFUviJUS1PKg5kXI/L6LigZ5WPWilZK/eAitHujkuN7Kg5w8dOpz0+6XD9M28h2xyZYpD7b+w7g9px+c/fq7srVtOfEH59EDqhICYquIzVDbJE2rfpGh3gHRIHWIMKj8lptJqxKH6i77zYuWxZiQ+qWNoTKtTUW6urizx5sEsvhIb2Ppm4RV2aYRh+VvTySWIkj5uUw7gWOxcRoBbPNM4k/8q6OdUpfehl74SHv0yx45pkfCNNlRtt/zla47dk+yaYr+Kl74xOp29cv9S9UTY0nX3XT/EN/aa6Nsx4iBwubq3qTbIPlCzMs58Z//EkPb5uwX0ezEsIh7GZ5e/y31SR3yW8oUFuRak+N6K2n0/UCfZ3/9Ho7pc/ocBmBgGgacoN65c6fZv39/dHjdNAUuKm0fInBRtg+t3D582VeE2vq2fOBUw6/9B6NiaOX4MGIZTiwPen5ftXs47f5TVEW9yl5PXMtQy9J+1fbiWPglQOyh02/3pN9tyykfwMfsG7VNCQGpUx5umx6AW/WL+v5yzE9+HYWQUX4PCP5Q3aXwGLWnZNLrN2lj4Zcqghoq06YVX/g8xwSylO9vY+lFUIb4L9sk4sZNpRhfubpsqxLUUv8kjiVdzD4572/b8Cdpqr4ffzEReuHjt9vWHWuj1DEm4iK+0u0o7knh67TwhwjHhgi1zGVXvo+xpOuW+4fPv2vr6CWlvFBw5Y0YsDY/8qXD5tSlQuxrYRzzhStzNJKo8NNo7YHAtW/TFvaPXiaMbHHi3rb19P3m8MMXinne3jSBWP1yDYXaKj5pk0bSsuUhGwZgAAZgwGfACeo+BJZf8bS/UxhKPW2blpW+D1/2Kai1H8sHX29xneIBNfzwqvP7+60eTkcPff5DtV/WrL8LG+qRU3l4bHpIDNUn+ea1tW05xYNqJRxDNvnH2jzctuoXETVKbPh1Nf0umLHiuhoabtOH6i5FWCmo4xF4W4YvpkJl2nS+8BZ7pxWgsfSl3QEf+WK7TOsJofKaC5Qh9tptiGM5Py0nbfkry4+MZCn6Qb1Aqb34qQR4rI0xO2K+EnvstumepPmI1W3LEGGsr+cYS7pusTt0/5Ay5Vxhp70GbITY3kMLgW9Frqtr1O9SprZF6pQXa1Kmy+dx5Nojo0rK66ioy4r7ffeeMqfvv8ncYNeJsAJ/n32RWd1bYvW3uZ/ErjOxny0PzzAAAzAAA00MJCOomxoxpHMpRPv78NeyBLVtW/kAqqKD8lDlR/om+WKah9PQg6Rfvjys+iLNT+f/LuyohF2ojX6e0O/YQ6efVh6AY8Of25Yj6STa5dcT+i19JQ/foTRt+sXm8/0WKqvpWCEmKmFVlVl/ORMSUKG8Nr8IVc1LrD06AqjtLMquxIQ+F9pvSh/zkT8sONTGoj3xCKpvS7yuYpRHW06EK+1Dvy7/t+SROkL9IHnG04bbKNeJb0fMV1K+3Qrn/j3J5nWr0otQlWHd3guLMl1eZzHGUq1uKVPdI+V80aaqzMLOR8wdn3jIXBjZ4Oo4ftgcPnXJSNvFZ/JbyhM/67nNba8N8ePZ+28zf3jqtFsIz9Vz6Yy57/DD5oJqe7T+0RzqpvuJfoEhdvtbefki/Pjn+c3DNgzAAAysLwNOUF911VVm3759gx7ynQqkKUT7+/BlX4LaPvyd9lZhFtGqH6DkwWzSnErfN60eTqeIUMtDmR2G6j9I27qdiDldX4m4fCD1HqiLh9L6Z258+/3fsYdOna56ULeRu7qYlHRtypG0hQ/D7ZU0eitCQ/efPm/32/SLTSd2xl4MSLmFj6sXFi6vCBsvkhaqu+RLpS1feqgId+lblS7WHhFrIT+U7QoIImmT3jYJ6rIsNby9ZE7ZGWpj4adxsTkNx7UyWrZHbPbFm7TZXmf+9VX4s3oJEbpPSP6yrconRb9XjEj/2Gs5ZIdcn74dY3V411hxj1B2ivhV13/ZP94CcbbsEJ9Sp96KfVogik90e8TXup1yjdpjwqekq+ctFl7LlfC1NjReG17aoj32XlSI/KJv7GrgudEiPVS/q2uCoC59qfyr/VTYW8zftgshTvsy1C+L3+v7wE3f0/cwsLoMOEFNB3fXwQjqwpd9CWrL7oGHLow+5SNDN6tP+vhs24dI+1kp9zBWbuuiUYveerr6sGspO/YgJ+f1tnoQrSJA+rzdt59qsp8h0nXL52/G0loxbz8B5adXLxkk0uinkd+hB3552NYPrLruadpctKn4tJLUKdtQ3eIjeVDX9cp+W9Hg6nZDv0cP4NpPSiy5dCFfBh6yQ3WXAkwJ0MpWj89omX4/xhmJ2av9qQWf+LvaVsKw8JF8JquywWcu1sZSHHntmoZja0PBXP1aFB8W7RVxVtlYtaf+wqYmuso+r/uzuM7rx3R9vj1jZbpPMxUvE7SI9Muo32/qfrdp5TNZZVvUJ59cu0VQl+0Ytd/zt9Qb4lPO+Vt7rdXvNeP3zrJ/lXgPHlPD6su22Kk36rN+uv4xf9r2BdpU3ovUudCx2D1p0v1EXiI03W+s3VJO7CWjbhv73T1T4Ut8CQMwkAIDyQjqVIZS79ixw+zZs2fQ0f4+fNmnoE7hQsNG/iE0MTCNCGoqJ+VzpUhrGaVOua3YPoz7QRmdDrwI8/tIBHvsJaOfnt/D6GP6gX6AARjog4FkBDWR3+4uiD58iaDurr/6uBFQx3L7C0Fd+F8ij3oYMmwul81V9r8/vL6prTJyaVIku6kMzsEyDMAADKwmA8nMoe5DBK4L5H34EkG9mjeMdblG+m4ngrq6Xgpf1Idw990f1Ff1x6r6QqZETBLIkk7mcK+qP2jX6jNPH9PHMLA4Bpyg7kNgzduJKQylnreNfeXvw5ezCmqJAug5eMF9b/5rX76jnsXdjNbZtwjqOlcHjn7THL/jV8yVWTbo6TPrzGzKbbfzt+1K6rG57ylBfdH+AAAgAElEQVS3Ddvr9xL8gT9gAAb6YCAZQd2HM7qogxXTiwt3VkHdRR9QBjdPGIABGIABGIABGIABGICBPhhwgrqPRar6aMwQ6kgh2t+HnxDU3MD64Iw64AwGYAAGYAAGYAAGYGCZDDhBvUwDVq1uBHVxQSOoubGt2rVNe2AaBmAABmAABmAABmDAZyAZQZ3KUOoUov19+BJBzc3Gv9nwGyZgAAZgAAZgAAZgAAZWjYFkBDWR3+4uvj58iaDurr9W7aZDe2ADBmAABmAABmAABmBgVRhwgrqPVZ/ndVgfInBeG1PJ34cvEdTcJFO5HrATVmEABmAABmAABmAABmZlwAnqPgTWrAZKvj6GKUtdq77tw5cIam5Kq34dLbp97vu3x283GwP7dJS16/R9N/JJqyu4xhd9DVA+jMEADMAADKTAQDKCOgVnWhtTiPb34cuUBXV260PmQp6b6vvXx83tG5O/hzv+De12+RbdH/LN1ao9uTmDIBr7vvFY/y1RzDoxnefmkTu2j9nZNS/T8KHTwhAPOV2zSHkwBQMwAAMwkCIDCOqOowwpRPv7ADVlQa39c+DoRZPnj5g7tjcL6kKMnTX337R14QJI2zftfnb9IXPq6dycvf8ms3VgkU/bllKwnbnP3HjluM/lZUdMzGXZreahC7nJI/nb+CvLDpijF3OTP3KH2b4EH2XX32tOXVpOH7Xlo7guzpj7brxy0Ly36W/S8PAGAzAAAzAAAzAwDwNOUM9TAHnrACKoC3+sk6AuRdySBNg012BbwTRNmV2mtYL60KmnTX72fnPT1oCgFrEbEcwiuOd5YbBMQV2+UIi0v0tfh8pqy0fpo0g/hMrmWP1/Bf7AHzAAAzAAAzCwGgwkI6hTGUqdgqDuw5drJaiXGFGc9kbcVjBNW25X6ScJaltPU3S0i5ECpVhcwgsSeSHQx1DvUJ9Nw0d24Ki5mOfm+O0bRKk7HukU6huOrcZDF/1IP8IADMDA6jGQjKBOQaimcoH04cs+BXUZIVbznmMP+TI3tZxPPCHC1mbI9zQipC0jbefzyvDgsj158zDcLm0to6nK79Gh2BPmpY/1iyqzaFs1H12EnF9XyYEX3S2P6zIb5kdPEtRF31T22D4tfRHgaaxtgTS1Mjz7hZmyjrxedy2vd26cj+b589PwUfqpwZfWtsJfzVxKG9mu3kMGfUqfwgAMwAAMrDoDTlBvbGyYzc3NQUcZ+hCBq97Z0r4+fNmXoC4Fg4omFlHOY2MLicmDvcxzLtJdMrknQsRPdhsT1GW9WqR5+77g0+XG9ivRVJ+3ff2hU+aYFwmUaOYZNR/aprvUEDWcRjDFbLTHS5F6pj40+8BD3xybVyuCUkddDxy9YPKA+C/6JD7ku6h7NMfZE6biD11PYefx2hx4EeR5RAiWQlExpX0RYiJm9zTMiU+bhqvb/n060L/Co87rjp2+rzZ0XviIsTktH4UvxgW++Evssi9FYnVKWrY8cMEADMAADMAADKTIgBPUfQiseZ2Tgo3ztrGv/H34sjdBPYp8ahEV8qM82PvpREDEItoh8eSXL2VoMeOnaftbRNWkBbFK4e2JvlLYxcRiR4uSiT8ntVna46cT0eqLrNL+SJRW/Fj0Sz3qWYjX+osISe9vXX5PkEsasS3WByEmQnaLj9oyF0svdtltaZvXv8VLi8mL4pV2evmljmlZLgR+vR+krMLe0Zz4fLJtOh/7PFDBAAzAAAzAAAykwkAygjoVh6YQ7e/Dl70J6pFAtBGwmCi27S0Ex7jYigkU8VFIPMk52U4rQiRfaFsKHhvtjogem69JfBU2h6OGXdla+m1C5LGIGo+LqbKdnqgtj08Q1BJlFkEuwj0mgn1fN/pIFj7zXlZIGSEmQnZPy1wowi516q1vu6373lOXWq1KXtrp+V3Kn5YP6Yema0/KZsuDEQzAAAzAAAzAwCoygKDueDGZPqK/KYDYl6C2vtDiTuYS+w/4RfRSf1va259CPPn+n1aE+PlDvwvRpGz0xLWIL2nv+Hb85YHzVUcRaleWrMithrqLwJU2yXDvcftGbfOEcyn4vONSnmzLPh8JQ/GHHw12do7N3xa/RnzUkaCeljkRp6E2SLtde0Z9KIw3vVyJ+j/i32lZbmuztp99HqZgAAZgAAZgAAZWiQEnqLds2WKsEFylhi2rLQjq4gbRp6DWfV0KLS9yWgxNDQsond/fD0Uj/TTTihA//6TfpbhWUUWpc5L48suWfP4QbD/dtL9LIexF1gvBNR6hjpVflhMRfDpf4ZdiuHFsuLcISr+9Tf1aMjTFS5aQ3dMyJ30zqU/LukYvWVwbA/4SQa/LK/MG0lvfig2+v7Tf9X7h3/b9q/Oyz8MUDMAADMAADMDAKjDgBHUKDUllKHUKgroPXy5LUFuWS0GkoroSSZOoXlvmm4SXlDGNCJFIatNCaFKu3hZ2VMO4Q23U6WP7bW0VIZorER8rU46XYk3lkfr8yLXk8bdlGRHBp9NLn5657zbzh5EhzzGh3dSvpW+nEdSjT6fp72eLfW2ZK+tV3Or26v1CrFsebjUPXciNL4CtH90wcM+Pk/wr/eWXp+vW+zH/jqdhUTLtE/Z5gIQBGIABGICB1WEgGUGdglC1F0YK0f4+fNmXoLbC7/R9N5ors6wcYSGiNRiZC6ws3XRDaxJekm8aESJRQzsEOiS03PDd0/eZG69U7ckK0eTPDy5E1XRCpY2tpRhzQ7nDC045H3vCT4Ye+2Ks8GG4veJDvZV2hfyj05UCdDTkXPe3pPPrrrctPGKhLDciqH2hLO12w9qVgC3Fa0vmyvTqhYS0w9+KjccPHzanLo23oyxL1V3OM7f+UnbqstvwIenL8iJ+sukkzTPPPNO4mr6UyXZ1Hi7oS/oSBmAABmBgXRhwgnrr1q1m165dpSAZYuP7EIFDbPcibOrDl30JauufAw/ZTzDJvFi7PWPk01i+/6xYs5+V8tPfd+OVJf9a9NbT5SYUsZ1KhBw4ai66+sdFkNiaHXjIXPBs1J/GknR26+q+5LenLrJrgs8r17YvJFxF1MaEl6075MuQqHV2Hjg61qZY3eGyq+i8PS9/VjAXYi3sz0pYVj46fsd2Z/vTeZVHhN9Yf4/85UfY620veHPiPSBU62nFjsiLihEfoT6RNstWXhb4L1rkvIjuqk1hO2fhw9YRenEldeutvIAIfSZNp2O/4hpf4AsYgAEYgAEYSIcBJ6j7EFjzQpGCjfO2sa/8ffiyT0Hdl9+oJ50bW6p9Vb4AaBGlXmYbyxcQgRcIvl3ywqnp5Yyfh99cazAAAzAAAzAAA6kwkIygTmEote30bdu2md27d5cRtCGC0IcvEdTcBIfIfgo2lRFdb0j9kGwvRnG0W4xMRnzERi8MqV3Ywn0LBmAABmAABmBgWgaSEdTTNmxZ6fuI/i6rbdPUi6DmZjQNL6St8yJD7v2h5kPwkyxYN0kgS7pcDa0fgv3YUGcNf+APGIABGIABGJiPgWTmUKfS0QjqAshZBbVEs6p5nzLn1NsOfEhsKrxi53w30EX6z4rq0/ffZLaqBfcWWV+bsu2QdLt6uL/wXJu8pBkua/QNfQMDMAADMAADszPgBHUKDkxhKLX1YwqCug9fziqoU2ARG2e/4eA7fAcDMAADMAADMAADMLBKDCQjqFMQqhYMVkwvbhAIam6Uq3SjpC3wDAMwAAMwAAMwAAMwEGLACeo+FqkKVT7NsVQE9TRtWlbaPnyJoOaGsyy+qRf2YAAGYAAGYAAGYAAG+mLACeo+BNa8DUrBxnnbuEr5EdTcxFaJZ9oCzzAAAzAAAzAAAzAAAyEGkhHUKQyltg5Oxc4QDBzjJgEDMAADMAADMAADMAADMAAD7RlIRlCn0qlE0tvDl0qfYid9CgMwAAMwAAMwAAMwAAMwEGLACeo+Vn0OVb6KxxDUXGiryDVtgmsYgAEYgAEYgAEYgAEYGGfACeoUHJPKUOqhC+prbjtmzuXFN51P3bvXpND32Dh+4eITfAIDMAADMAADMAADMAADy2cgGUE9dKEqMKcS7Rdhjahe/kUo7LClL2AABmAABmAABmAABmAgLQYQ1Fek1WFdXWBZdo257dg5k5+61+zNMiLVa8pBVzxRznreR+h3+h0GYAAGYAAGYGDdGXCCOoXobwo2pgRTKagfP2SuQ1DzQoEXCjAAAzAAAzAAAzAAAzAAA1MzkIygTmUodSqiGkHN28RUWMVOWIUBGIABGIABGIABGBgqA8kI6qE60LcrlUg6gpqbks8uv2ECBmAABmAABmAABmAABqZjwAnqjY0Ns7m5OXV4G2ePOxtBPe4TOMEnMAADMAADMAADMAADMAADq8iAE9QpNGzLli3GitWh25qKoLZ+LFb6fso8dOvrB+/Xofc79vEPAgZgAAZgAAZgAAZgAAbWj4FkBHUqQjW1aH859DvPDZ/QWr8bADd9+hwGYAAGYAAGYAAGYAAGZmcAQb3GK9mVEeoDVxOhXmMOuIHOfgPFd/gOBmAABmAABmAABtabASeod+7cafbv3z9oUZVKhDqVC6qMTPPZrEFznwpP2Lne/0jof/ofBmAABmAABmBgXRlwgjoFsZraUOqhA4Wg5qY3dEaxD0ZhAAZgAAZgAAZgAAaGzkAygnrojhT7Uoj2W1sR1NychFm2sAADMAADMAADMAADMAADszHgBPWOHTvMnj17GPrawTzaFKL99mJBUM92wXCjwW8wAAMwAAMwAAMwAAMwAAPCgBPU8oPt/GAgqOf3IRziQxiAARiAARiAARiAARiAgRQYSEZQpzKUOpVof7bvsDmd5+bxQ9cxMqGDkQkpXOzYyD8lGIABGIABGIABGIABGOiWgWQEdSqR36EDWnwqKzd5npunjh4wV2cZghpBDQMwAAMwAAMwAAMwAAMwAAMzMOAE9VVXXWX27ds3aAciqLt9kzJ04Y999DcMwAAMwAAMwAAMwAAMwMDQGXCCOgWxmspQ6qF3OPZxU4IBGIABGIABGIABGIABGICBbhhIRlCn0uEpRPtT8SV2dnOR40f8CAMwAAMwAAMwAAMwAAOLYcAJ6lQW/EoBghSi/Sn4ERsXc8HjV/wKAzAAAzAAAzAAAzAAA90x4AQ1Du3OoQjq7nwJl/gSBmAABmAABmAABmAABmBgyAwkI6hTGUqdip1DhhLbuGnCAAzAAAzAAAzAAAzAAAykwEAygprILxdUChcUNsIpDMAADMAADMAADMAADKwPA05Qp7CCNoI6fSizfYfN6bz4Brb9DnaenzL37p38Hex9h0+772YXedrnm/VGNquds9an80ndp+7dO+jP2NVszvaa1/7uObP37vPV351/ZF6xZXLf1sv5bfMzn1Nl3H3eXPuulyfjB90W9tO/X9GH9CEMwAAMwAAMwEAbBpygTkGsMpR6tYC+wYnkx82h65pFVyGmnzJHD1y9FGHV1s42F1ubNNkNxUuHxw9dt5T2trFRp8lKMf2w+dEdzX2p803az97+J+ZtB62g/uEk/DCpPZxfrfsX/Ul/wgAMwAAMwAAMCAPJCGoxeOjbFKL9Q/BhG6GaZfvM4dO5yR8/ZK7LuhNr07S/jZ3TlDcpbXKCevfnzOYXzps3/9pN5ooO+whBzT+pSdcK52EEBmAABmAABmBgCAwgqK/oFsQUov1DAK+NUM2uuc0cO5ebbx09YK7uUKxN0/42dk5T3qS0yQnqPX9i3uaGZncbSUZQd3tfmsQd5/E3DMAADMAADMAADMzGgBPUOG8254X8tkqCuowQq3nPsbm919x2zJxT6fKnHjK3vj4eVW4jVFMR1GNzvBvaPpb21L1mr3pZEBLU4gc7h/yph241r1fpQwz2eayt8H3Zvzth3q7nWN990lz989uiw7nblDtWZmTedpZNNzf7ursfMxfz3Jy465VR+/r0MXV1d3/Gl/gSBmAABmAABmCgawaSEdSpDKVeFUFdijg13DrLrjG3HfvG2EJi/jznIt25xkXHYoK6rFeLc2+/T1EZs9NeiOULh6eOmgNXFy8PsuyGYpi6t+BamTavzxu3LyK+oRYg8wV15Y96vq5vBNOUl42i0uUiZAfrC4nZ43oxMSt89ZBwN+/6E3YRs7ioniSof+RDTxX531CJcpvnTd7Q82w0JH3vLbeZK0cvIlzZd4eHqWfZx8zXz48Wzjtxl3nlgF5eTNNHpOVhAQZgAAZgAAZgAAb6YSAZQb0qQjUVsGW16UmLY4ng89PJ8VhEu0moio+kjKEO+S6i8uNCV+zWwr9I+62Ji6tpQS3l5N+qBLv4pu02y3ab93/2a+bIkSPRvy/+5mtnjsROEr4xO7Pdn3dzr7Xw1mmbyi0XQrMR6a3xURC2PCe8A+lebQV5JKL9sSN/Z5555hlz4vdeNbNfdFvY7+efGX7GzzAAAzAAAzAAA8tgwAnqjY0Ns7m5OeiHRwR1vxdIKeby3MREsQU2KiolUusNaRbIUxfUZRReRfClbeW5UdvL34G0kke2paD+k8Nu/vgyF2QTm5q2TcK3Md9IUOvItU4/qVwniO0Q8ogotmXJUO9QHS979/9h9jREyLUt7Pd778Hf+BsGYAAGYAAGYCAlBpygTkGs7ty50+zfv3/Qoj+ljm9jazV8ufp2tC+ux+YEe8OzY4IwfUEdX4G8FNCjudTlcO8pBHX5ze0Wedr05aLSTBK+tt4yolybQ10MEw+JXZenxWezClGshpt74roc7h2o1w1XP3jSXK2GjC/KR5TLQwEMwAAMwAAMwAAMrC4DyQjqVCBMIdo/iy+1uB4fyjw+7HlSHekLajuf/Fzwk16+gC5910IclxHqQ9eNov/zLUS27CHfEiXee3f9O9Uy5HseQa0Zq8T1UfOj22U+e7EYWawOnZ/91f0nR9/StzAAAzAAAzAAA4tkAEHNZ7NaR/1LYaiGcYsA9CPXk6DtWlDLnO/cWwxskh2TzjfZWZw7NbZImwyX1/PKY2n9+sWfkrcYUj+fqPbr6PL3pAi1RIl9Udu1oLZtcqLaRp1Hq4eXi595ketJ7ZdVvnMWJWt9b5jkU87zIAMDMAADMAADMLCqDDhBvWXLFmOHfa9qI/tsVwrD59v4wwq5094nmkS0itiz5ZTDm/OnzEO3vr41Q01CVewTYdpmUTI99HxacS/1hbZNdop9+hNhZXTaW0gslNbWZ/3ctMq3TVPYMExRPVlQF4uP6bnOepVwX2hLHzSVW0S9q0i0zVMOK7fiWS1U5sqxQ75v+US5yrfUEdpm2XXm7scummLI/Vnz5fdstGY6VB7HeHiAARiAARiAARiAgdVmwAnqFDo5laHUqyKoLRMi5Mr5vPlT0VWqJZJapbXzrusiW4veerrcaFEqPIoIbSOoJbKbe5+lkrKm2U5jZxm1V3PHnzp6wFwd+NxS9fKhmpP+1EP1tNKO8EuL3ORqdMA0bVpU2ibhK3WWolbmMjvROz4cWwvtYo6zmh/tLSAmEe7y011ONFefxpK67bYadq7Li4vs7J0HzV9dKvqIb1Gv9j9AzQn79DUMwAAMwAAMwMAsDCQjqFMRqkT7uRBnuRDJMxxu7Leoj/ydFdQnzO+9qvmzXPTbcPqNvqAvYAAGYAAGYAAGlsGAE9Tbtm0zu3fvHvTQxlQE9TI6kTq5ecBAdwzIHOqzD/x7sz0w0gBfd+drfIkvYQAGYAAGYAAGUmfACeoUxGoKNqYOA/ZzQ1tnBrKPfd2cd0P3z5oH/v32Qb9gXOd+ou3cp2AABmAABmAABobEQDKCekhOa7JlqNH+xnnBav5vaC5zU3uHfi40b3ls/ra0f2Dzk4fuW+zjnxkMwAAMwAAMwAAMwMC6M4Cg5rNZROI6ZmDdbyq0n3+sMAADMAADMAADMAAD68KAE9Rbt241u3btQlh1IKwYms7NY11uHrQT1mEABmAABmAABmAABtadASeoU3DCUIdSp+A7bORGBwMwAAMwAAMwAAMwAAMwAAPdM5CMoCby233nc0HhUxiAARiAARiAARiAARiAARiYnYFkhnwjqGfvZC4QfAcDMAADMAADMAADMAADMAAD3TPgBHUKYjUFGwG0e0DxKT6FARiAARiAARiAARiAARgYKgPJCGoWTuMiGupFhF2wCQMwAAMwAAMwAAMwAAPryUAygnrogO68+QHzRJ6bZ555xpx/8LdZMb2DFdOH3ufYt543TfqdfocBGIABGIABGIABGBAGnKBmBe3ugBBhjajuzqcCK1t8CgMwAAMwAAMwAAMwAAMwMCQGnKAekkExW1IZ8p1lO83NDzxh8vMPmt/OMiLVRKphAAZgAAZgAAZgAAZgAAZgYEUZSEZQp7IoGYKaN2axl0Ichw0YgAEYgAEYgAEYgAEYWC0GENQdvylBUK/WBcINj/6EARiAARiAARiAARiAARiIMeAEdQrR3xRstE5GUHOxxS42jsMGDMAADMAADMAADMAADKwWA8kI6lQWTkNQr9YFwg2P/oQBGIABGIABGIABGIABGIgxkIygjjVgiMeLlb4vmke/eB2LD3Q8pH6I/Y1N3GBhAAZgAAZgAAZgAAZgYD0ZcIJ6Y2PDbG5uIv46FH8Sqea71Ot5YXFDpd9hAAZgAAZgAAZgAAZgYPUZcII6hY7esmWLsfOoU7CVCPXqXzgpcIiNcAgDMAADMAADMAADMAADi2UgGUHNomSLBYELDf/CAAzAAAzAAAzAAAzAAAzAwHQMIKg7HOZt4ZOh3vn5B81vZ1kSEXUumukuGvyFv2AABmAABmAABmAABmAABiwDTlDv3LnT7N+/f9Dijwg1wHLTggEYgAEYgAEYgAEYgAEYgIEhMeAEdQpiNZWF04hQc4EP6QLHFniEARiAARiAARiAARiAgcUxkIygTgUCBPXiYE2FAeyEARiAARiAARiAARiAARhYDwacoN6xY4fZs2fPoId8pwJktuuT5kSem/MP/jb+7Hh+eioMYOd63DzpZ/oZBmAABmAABmAABmDACWpAmB+E4lNZubHfnb746BfNdSxIxgsFXijAAAzAAAzAAAzAAAzAAAysNAPJCOoU5nnzYmL+FxP4EB/CAAzAAAzAAAzAAAzAAAykwgCCmjdGK/3GKJULETv5pwEDMAADMAADMAADMAAD6THwrDe84Q3mTW96k/tslt0f6t+b3/xm88EPfnCw9g3Vb9g1XKbpG/omFQZ+53d+x/z1X/81998B/49MhSXs5L4HAzAAAzCwagw4QZ2CWLWi/1d+5Vd4oOOBDgZgAAZ6ZgBBzcPPqj380B6YhgEYgAEY6IqBZ73qVa8yP/7jP+6iv3afP3wAAzAAAzCgGXj/+99vTp8+zf8H/kfCAAzAAAzAAAzAgMeAm0N91VVXmX379jGXdoXmU2cfP2ounfljcyOrjcP1CnHNvKIrTPaq/9l87fRfmM++NeuN7Xe/+93m8ccf760++jm9+WP0GX0GAzAAAzCwrgwksyhZMh20+SXzCwfPm71fOPH/t3e2wXJU553HdvwasvJL7DgOjSVdCYXYiozs4GBLTiAJ3AU7gFZyxVnEJiZBLkw2wrEdO2U2i5xdQUKwg3EBiuW1TDDxkiWmRIAsWSIcQBAFQ+0tZHUVX/ZzqrZqP2zth3x4ts7pefo+c+7pnu6Znpk+c38fprqn+7w85zm/7pl/P+eclgs/XP+HN8veJx/4Dyvy8W+cLj97v/Zd2TGhCPZiOs/lufs+KVlFWZomzx+TW5fq7UzG9whHBE8NA9m2g/KRO4avt6v/45/KeRXXSBX32fu+IpceWS1n75GTsvuK2V1D2z/zoJzKc8lfno6o1vLdKwBffPAmzxSCmj9JVdcDx2EDBmAABmBgvTOQjKBOJoreUFCrmG4ivNtAmmW3yPEf5pI/dqss1QiFaQjqW47/0L+HuyuRfs03n5Uz+XNy3ycnFytqmxMJ9vPYrUu9EaFZdo1889kzQ/Y5W/OOfNCGo0VLq2J671fuk+0110Xbdi/95t/KrAW1szHbdZc8mefy8pN3yZUdtkfFtApp9QeCmj9LygJbWIABGIABGICBYQaSEdSL9h7q7Pw/ll8+siJXf/aznQo6Jxy7ErRtLhYV8o8dOybPnsmlC6HataAO/VI+VOjJ0HgV1HlgT+GH0Q9J2vTXeku76WPfkY8d+YFc+u+u6PR6m5egdv23664nJc9flifvurKTNmXZdvnMg6ckf/FBuSkQ6Qjq4R/O9Xb90F76HwZgAAZgAAaqGfCCeuvWrbJnz55O/pRNy9mLJqjP9ZHsl2T5t7rze3bNN72YrRvqPa3+KcSpGz7eLELexI5pC2png4rqefgs9EGVoHbpVFR38aAirHc9fJ+W8J1WuU36JMt2yV1P5lEB3CR/mAZBXf1DGfqK7/gKBmAABmAABmBAGfCCOgWx2vch3xv3P1rOg3ZzokfOhZ6CoG4SnVZhpsOew2ioguG2KvA0rdtWCU9f92CYeZUdseNah9qhDwVsneF+KCo1Om7ThXbG6i7aOHgAYKLChcguhpqH/grrdmW4sm3d2hbrw6oh+GX7ve+KId82vyvDlzN4WBKWE/OXtdG2RcuyW3t+yJZBfdqu0J+2jBT2mwjfLPtZ2f6Zk8PX8dcflZ/7YPWUg1Hlxsqsmrc9ztzsIkr9ojx4U7WNTfsHQc0fg6askA5WYAAGYAAGYGCVgWQEdSqdVs6Nji0uNphfbRchs/t7j4wfsR4SQ8FwzZjvyvRGSNp0KlJDcXfL8ZNr5jRrWhVdVqTZMmOits6OJhHqoq7hBdj0mBWfsbqdbWX9ZnE2ze/EpG1/UcbqnG5tt01THhuUV5Y/ys+jBLXOjTflqNi3AlqPDfdF9RB862O11bfbzNtWf9h6bL/2dd+JXXt9hft27nMhfL8/NCS8nHddI6rrBHWW7ZYLb1mRvUH+pd98ZKge579iSPqK/OrBT5cjhYqy64ep61zqcM7zOH2CoD3buDoAACAASURBVF79YRzHf+TBfzAAAzAAAzCwPhlAUNesCjzORVErqG1dHUeoVcipkBplu4onKwZtHo18NimvEFxrhWaYNyZq6+ywYs/apvtl3sgCbGHeWN1azhqh7F455lZRDsoNhWVRx9pV0kPf+fIHQji0ebjfaiLUgwXLdB74cL7h6KRtq9qiYjjsK9uG0jYjpp2PtC7nD/VZ0+3PXX+H/OXDD8sjjzwS/Tz8rZvlX2eZZNml8qVv1qR7+Lvy1U/9XOv61c464atpYttC6Fav4l1Xrgryqoi01qfCO0xXdVzzua1/hdapbhYnQ1Cvzz8Blif2YQAGYAAGYAAG2jPgBTWOa++4Kp/NTVC3nD9diicT8bRtUhHlopWhMLbp3L4VjHqu8piJBLu0dXaEoljL1m0oFvW4L3fgDxWSVmTadG6/OGceCAwEteYN0/vyVeAGojt2bki06tBtjWAbO+t8UZ7TfN7GVZutjVY0az9qH7q22j61/VTWETChZYwjqK1d89yvE751do1azKyuXBXELjIeimVbZzHUe20kWoeLhxHuobwdzqOui3azKFl3vxG2/9jHrzAAAzAAAzCQPgPJCOoUFk5zF8SiCOqiLWtf46TCTC9+FVvh8ZgYjonaKhHnyo+VofV6+2qEr4pttStWty9DhbER+mEk2tap+9ruMIo9VKZGpY349WU/dkyOPXvGr4Q+LH7rItTDc73rfGPtL/1bDik/Kfcd+xv5obdtUN/goUCZdp0Kao0orx0avlbsKgd1grpgYe287FBc63DvsF79Pm1Bra/Kiq3ure1EUKf/Y699yZa+hAEYgAEYgIFuGUhGUKewcJqDc26CejDHVgXkqAulSjxV5dP0fn6ticqqeHPHYx9rT0zUarmxoed1otH72kR3Q7vVLo0yx+r2ZUTmJod5w7KLfMNi1KYJxbaKe2eLs0O3Xox7sV0MG6/zhZahAr6wMR6hDv3m2+5E8rXflGdPDrZnXN5r/XuvtY+q6rftse1ssp/KkG9dECx8T/UkEerQPxpxdkLZ1lMVoQ7zx753OuR78G7r2HxsBHW3P7yxvuQYPoYBGIABGICBNBnwgnppaUmWl5fHnp84i85HUNcDViWGqvqmbXpXTixPKdaChdAq05pIsC9Th0AHUVF3LhSGYVus0FsK6i/yrs5vrhLURbrhRbuaCGpnS1WZKn5VzKudj916WI7/cCCeB0L62LFn5cyg7TGfaZuLulYFtNahYljTlXYZf/o2PnefHP7Ws3Lyvk+W/fjcfcfkb3642vaq+tX+RR7yXSWcq46rv0dFqDWdblVU26izRsbDyLXmqdvWDdOuyxc7xxzq+ntszGccw2cwAAMwAAMwAANeUKcgVrdt2yYHDhzoteh3F9S8ItSu7iqBF7vQq8STpvWi0kSifdsG4ldFnBVaoaB16UNBHApVFYU+6m0EYGmDiu3ADj2/Wkd8lW+106WL+cYdc3XbdC5taKetz+6r/Ta6XvrEtEd9bdup6fyxmiHXNq8KdLVB7bfH6x4QuLo0rabLzQJkWpdtj/eHRvHHWJRMbZ33dpTw1WHXVtS6PD6afGS8Id8+8vyV+2S7edhTJZ61LrvKdxOf8dosfsSbcEIaOIEBGIABGICB6TGQjKDuMwQqonXOY7j9N3/0Ndlm/lT7tnS8yrcrUwVeKBDVdyqYnLCKfXQ4saZX0WXTqiDz9fko62qEU/PpNmaPLVPFnBe7RoBqfl/HQFRX2eDTDOzQNFquLUfFp6ZxW10x26az5dm2hmn0uxXGWnbM/1q/PRceq+qfUOBq3W5r/VnVJu0H297oMZ1PHvSFtnGRI9TOlypq9fr14vp9X5FLA0EdptP0bmsjz65MFeo2TZVo1mHnNq3br0zf4YJkzlYi1NP7oXX+5YMPYAAGYAAGYGAxGUBQL9gfHS9Og2HVXLyLefHSr+u7X4vo9Mvy5F1XdiLWENTrmyfuJ/Q/DMAADMAADIzHgBfUGzduFDfsGyeO58Q++a2MPAZRxj7ZiC3pc0YfzrcPde70y0/eJVeGo1/GfEiIoJ5vn3JN4X8YgAEYgAEYSJMBL6hT6LwUFk7rix91DnA4hLsv9mFHmjcL+q0f/aYre9e95mrcvipeobU26s0q3/3o+3H7lXz0HwzAAAzAAAxMj4FkBHUKC6f1CVQnqk8+eqv8ZkfRqz61DVumd0PAt/33rRe9Lz8pd12ZTWVUkRtKrusB6Cu0ENT954Jrlz6CARiAARiAgfkwcNYHP/hBueiii+SjH/2ouP2+fj7ykY/ITTfd1Fv7+uo37Oov0/QNfZMKA5/73Ofkueee4/7b49/IVFjCTu57MAADMAADi8bAWZdeeqlcccUVXqy6/b5+UrCxr77Drv5yTd/QNykwcMMNN8g999zT29+HFHyIjVzrMAADMAADMLCYDJy1e/du+aVf+iUvqN0+H3wAAzAAAzAAAzAAAzAAAzAAAzAAA6MZ4LVZY66I2/UcBTnrLLGfrsunvPnMqcDv+B0GYAAGYAAGYAAGYAAGFpcBL6g3bdokO3funMoCN8DTDB4rpt0+fmvmN/yEn2AABmAABmAABmAABmAABubFQDKrfG/evNkPR5+Xo5rWe8EFF/jh803TazoENTcBZYEtLMAADMAADMAADMAADMBAGgwkI6hTeW0WgjoN8LlB0U8wAAMwAAMwAAMwAAMwAAOTMpDMkG8E9WxhP/+G78veI38vF324+btut/za9+TKIyuy96sPyQXbm+ebFOKm+Q8dP12+X9e9Zzd//DbZMqP3dLu68/xxuW1L//zS1H+km+01iL/xNwzAAAzAAAzAAAz0nwEvqFMQqynY6IB/z3veI9dff33rOdCzHPJdCN/n5eJ9H660cxEFtd6QsuyQHD+dI6grFuTb+Kt/KR878gP5ld+4vJIP9SXb/t/k6SP6CAZgAAZgAAZgAAamx0Aygnrjxo3iRPWiwrAIgjqVvkFQ199QENT1/kmFc+ykH2EABmAABmAABmBg+gwkI6gXHQYE9fRhV4YQ1PW+RlDX+0c5YoufYAAGYAAGYAAGYAAGvKBOZQXtRQZ22oI6u+CQXHLninz8G6crP5d/ak85AmB1yPfFsvMP/rHMs/fw3bItmHfs0tpyY2m070I79h6pH3qu+brcNhHU2SeOytNn8qE514/ftqX0j7VHy3PzsvUTpo3Nof7E0aflTJ5Lnj8v91+3KVq2rWea+9n5n5GP3FHPx68e/HRpY3bBV+XSwbDwQoCv5h1KNyj36j+8Xc4z3BT5V8Smde0L7dg7Yuj55Xc8ISt5Lk/dfVlp2zT9RNn8aMIADMAADMAADMAADFgGvKC2B/q6n8q7snfs2CEHDx5s/ed+2oLa9mvjOdRf/b5cceeKqNBWMXzlF26WzUYcadlZ9uvyoT9ekSpBnV38DbniyIrY/D7PLbNdxEwFcNWiZCp0rSjWY8/ff51sMm3PDh2X004UmwXOsuwTcvTpx4YWIAsFtZZn86kf571tEqFWQewepOz9+qPygQ8Wi61t+eTfihXBKpCbCGot06ZVsR4Kb+ejLPu0PPBC8dAjf+puucz0y7x9SP380MIADMAADMAADMDA+mAgGUGdyqJkKbw2q6mgdmJJxbS7IWRZEa2uWsV7lKBuUu8sbjx1glrPhcLZ2RWK4kI4n5H8+fvluk31q3fbvCqmY3U0bf+mq2+Rbz/8sDzyyCPRz8P/7U/kk2MKzDaCeu9X7pP3mnpUFKsAbiqos+x98rO/d1LWlFdxXP306Qde8KMCiFCvjx8s7Xe29DcMwAAMwAAMwEBfGPCCOoUFvxDU3V00TYTt6pDvVaE4qaDWCPU8hnnbC05Fcyw6XESc40Oww3M6LNxGsm09dl8F9bePFcO8m+Sx+We530ZQq3Cusq+xoB4MDY+VV0S9T8ruy1dZrKqP493dJ/AlvoQBGIABGIABGICB0Qx4QZ2CWE3BRgfc9u3b5cYbb1yMId/Be6gnFdTOPzpsXOdcz0Nc1wnqInpcJ6hzUTGsw731e90NxwlqnV/ttk3y1JU3zXNzEdR+TvbqPGzlQ7d7jyCop9nnlD36xxIf4SMYgAEYgAEYgIEYA8kI6kVfOK2Xc6inIKgthFZc26HlNs009usEdRiFtvWHYrutoM7zx+W2LW5+9ZmJFyLry5DvWETZ+qyLCLUtj31+yGAABmAABmAABmAABvrEQDKCuk9Om4Yt61FQOz+qqLYLlVn/amQ3NjzbpmuzXyuoB6t7x+Y3+2HbZr50XTmhPTrk+7YtmZRzr3uwundop/s+iwi1G8btos8qyLPsF+XCW1bWzKGO2WeP6SrfLErGD6vlgn14gAEYgAEYgAEYmBUDXlAvLS3J8vJy62HKszJyPdQzS0GtIrZqNW7n72nMoXZlhpHouvncKljdEOkiutvNHFott0qkq4i3w7J1ITF7zPlJj1sB3mSV79KGHopqjSqHC4TZ6zBcfMyes/vlYmPBSuA6lFsFtctTCPkVsat827LC/Sy7XO54YsUPpc/zF+Sh338/97Bz+fEMOeE7TMAADMAADMAADEyTAS+op1lBV2WnsHCaa2sKc6idnSqqVdi4rRW7TQW1ruxty7H7NvKsc7Dt+b3BsPKQFxW3VeI3TF/1XQWsncds960gdmWoUNY0dYJeFydbTbt2DraNUKuNNl8o1DXNvLYqqm1fWfHbVFA7+zX6rGV5oV6xCFmsXpevSmRnl98hT6wUr85ipW9+LOd1vVAv7MEADMAADMDA+mUgGUGdyqJkKbw2iwt+/V7wi9b3+i7qPH9K7r6smxEMi+Yj2sP1DgMwAAMwAAMwAAPTYwBB3fEQSQT19GDlRoBvQwZ0DvULD/2+vN+8DztMx3fYgQEYgAEYgAEYgAEYmAYDXlBv27ZNDhw40Ov5h6lEqHfs2CEHDx5s7ctZzqGeBkiUyQ1qlgxkn35AXshzYe403M2SO+qCNxiAARiAARiAgZABL6hTEKuLvnAagrrdxWnnH+vc5apt3+Ynhxch39v1Pf7CXzAAAzAAAzAAAzAAA31hIBlB3ReHTcsOBDU3hWmxRbmwBQMwAAMwAAMwAAMwAAPTYcAL6q1bt8qePXtaD1OmU7rrFAR1d76ES3wJAzAAAzAAAzAAAzAAAzAwCwa8oJ5FReuljve85z1y/fXXt344gaDmgl8v1wjthHUYgAEYgAEYgAEYgIFFYSAZQZ3CPG8HBat8c3NYlJsD7YBlGIABGIABGIABGIABGKhnAEHNa7NaR9O5qOovKvyDf2AABmAABmAABmAABmBgfTDgBfV5550n+/fv77WwIkK9PoDkxkM/wwAMwAAMwAAMwAAMwAAMpMKAF9TzEKvnn3OOfPvss+Xmt7ylkZC3C6e1zZtCZzCHupubxqHjpyV//DbZkmWNuEqBjeIVYY/LbVsWp00p+B0bu7km8eNs/ZhlB+Q7p56Sey/nfgF7s2UPf+NvGICB9crAzAX1BeecI3+2YYP882teI/9y1llyS0NB7Tpokrx97+C+Cerzb/i+7D3y93LRh5v/Kdvya9+TK4+syN6vPiQXbG+er6u+ybJPyNGnz8jz918nm2YsqJ2Qd+/B7lrM6/u268rdfOm/lX/48y/Lyt3XyR/MuN2277Jss/znm+dvh7Uptf1s6aNy3PXln/+hPLh39tdQU3/1hbmm9naZbvn2J2QlzyV/4XvypQv710fZge/IKWdfjqjust8pC6EAAzAAAzBQxcDMh3z/3tveJmde+1r57be/XX7wute1EtST5K1yQF+Oz1JQF8L3ebl434cro7gpCWoVnU7Q2s/jt22pbF/X/d5EUKudTQW/PiDIn79frttU/ce9FGELIKizjR+Wb/3Jl+V/Hv64fHyODwe64iPL3i3X/c7nZeXem+TuX6juQ62v7MueC+rSzjkzp36bZFtEdHPJn7pXLm/AXN8FtfNFtny7PLHSvE2T+I+8/MGEARiAARhY7wx4QT1LJ2zLMnn3YCGwtoJ6kryzaqMbmn7VVVe1FnKLIKhn5WNbzyeOPi1n8ryISn/iqDx95nm5/7pNrf1vy5zWfltBXbRtdHtU3MxbhHYRoV7vgnpa7HVdbl+Y66JdbQV1F3XOogwV/k/de3kv74ez8AF18CcfBmAABmBgFgzMXFDbRrUR1Nu2bZMDBw6Ufwza5LV1Tns/hddmTStCPW3fhuVn2SE5fjoXjeAWgnW0AA3LmdX3NoK6bFuD+eB9EaEI6rU/Wm0j1LNicdJ6+sLcpO1w+RdVUGfZstz+xEpvh6Z30XeUsfaeg0/wCQzAAAzMnoFkBHW4cBqCuh0s2QWH5JI7V+Tj3zhd+bn8U3vKBxarQ74vlp1/8I9lnr2H7xY3UsBerC6tLTeWRtOHduw9Uj/0XPPFtqXoHAyJzg4dl9N5/eJdGtHWoeEqxrV8f96Vd62Ldrt5iIVAL4d0m+HXOiRby3LbcDh3LI1N7/Zj86ObRqfV7rrt+dd8as2c3JjQU5H04u9fJjpH9vTR/yQrf36L/I8DFw71uatPBbRLYz/hXG6tayiNGQIdO2/Tuv2wTFe/a5dNF0ujftG2jRp6vaZMY6dtsx8NMJjvrDY4v2l91n963m7DOdJh+jo7Y/4K2659M8pOtTdW5rxHPKhtdqsi0V5D4VBtHe7sIrMapfXXWf6CfO9Lqxwf+M6poSkitkyfPpgjHaYP6x220y0Mlg+V/8L3viQXmntnUzu1XBX+1s5R0eei/cPt1vJ0q3bUtUfTsm33u4u/8BcMwAAMrA8GvKC2K2jPsuNjovins0w+/9a3Dn3cYmQI6u6AbByh/ur35Yo7V0SFtorhK79ws2w2fwyVmSz7dfnQH69IlaDOLv6GXHFkRWx+n+eW8Rcxs0L31v/ytJwxglft0q1LqwLZHVOxmxsRroK7ODZY5OzkSTnjIsV+SHkusbnZTaLPTdIM2VrTFk3XZNtWUDvhZwVdkX9YVOuQXysiVcRZcVcItc8OCfI6cavn6sScij8rSsu6AwGs/lHBOurhgG13WaaZz6zHvI/McS3f+sPVXdpaYZfap9tR6dU/Qz4ezDuP2R63M+hLXUwusNH1e+xBito6621M+JXHjPjVY6EodoI4D0S1a4MK1aaCclR6XRTMCmg9Zuuot3N4QTFNO5TfR6CfqF3NW/NZW8J+0wcFLGLW3W9s6GO+41sYgAEYWGwGvKAOxeqsOj0mqLefc478xdlnD30uete7JHxXdizvrOyuq2fTpk3ihn3XpYmd6+Mcahd1VjHtbM6yIlpdtYr3KEHdRMjHfDPqmIpq/wd6EFEO86iYDcVweFwFdRFpLgS1Cm5NG0ahvW8GYjt2Tm2py69pfFmD1cpjkWubrul+W0FthVlhT7F6t4pcFZVW1Nl04fGYnYUAXbuStQpGrSuWtxDzw6LQ1+8jxmuP+3MR0WnLbmpP2XYjpn35uvhYsEjXKIFsbRgqJxC3ms73ZeRc+ICj0s7Iom9NfK71z3PrBbERzmqLilWN1qqIDFfhViEciks9bsWqlh3b1qXXCHqsrDBaXGnnYJVubY+zIWxjzK7YsTpbNb2WHbNZ07Bd7D+C9C/9CwMwAAOTMdA7Qd20Q/sqqJvaH6bro6AOX5s1qaDWCPUkw7xDv+l3jTbrcEgVwXq+EMprh4OXw8YHc5XtUGstU4eF1wniunNqQ5M0Lm1ok+Yfd9tWUIdithSFA7GoAmxtNLb5a7MKAbtW/GrZoQ227ZWiMiIWbb6q/bB9Nl14rhSqgXB2eWJ2lfkjItjWo/t16bXumG/Cc/o9fLgR86+mddHsWNlq2zy3KgxDMexsCs+pUA3TVoldzd9UUNal17qtGFa/hef0+xo7Y4J6sGq3u7/FytY6wm3Z5siDiDAt3yf7M4X/8B8MwAAMrF8GvKAOF/yaFRCTiOJJ8s6qfW3qWQ+C2vlDh43rnOuuxLWKUBeBLuZSu/nPqwLaRrFVdNutRoMR1GtfWRWKvDAaqpyrMKsScU6w2U9s+HVM8Gn5np9BJNiWE+63FYVVdtv6NGpfl7bpgwvbnnA/9LU9X+eb0K7wu5ZTVYbWa33Z1o9axzS2VeLT1RUK3Kq0VeIyzD/K/rr0Gu2Nid7QrvC71ltVhtZr71uxerScwjcsTGb9wf76/bNL39P3MAAD02TAC+ppVlBX9iSieJK8dTZNem7Lli1y8cUXL8SQ764j1KFvrbi2Q8vDdE2+W0Ht0ofzpasi1GHZ/RDUg6HmDVb4Du2PfW8q9KrF1nDkuY2g1rShyJ5GhDrW9ibHVEyGNrq8oTANv2v5ZRlBJLrquOYLt3Xpte6Y0A37TtOGbQrThfW772qDE9dh/lj6WRxTMRlGc729g+itnqsUqlmxUFgYidayw+NV7apLr3XHhG4olDWt2q31hen0uN2qDU5ch/lj6Zq2zeZlnz+fMAADMAADMNCMgbkK6ts3bJBr3vGORuIznEPdJu8sYVjk12ZNOuQ71g8qqu1CZTadRpY1gmzP2f1iOPXqK7NCQa1R63AOtS3D7fdBUDs7CvtXI+yhnW2+RwV1ZE5xldjS4zrEW7+Hwq4QyV8eEmFVwrnqeFXZtr1VeW2acF/L1UhzeD7mI5dG85Vt1wW8giHfKmBDn6g4rao3tKMufe25YP642hMKYm1PaGcbO8K0dd+t8IuJzLq89lxVdNmlKQTo6krWlUJ1ILxDO9TGpqKzLn3duWIO9epiY5V2RoZ8W1/ofl1dZZrgYYMet1u1g0XJmv1psr5jH5/BAAzAAAw4BuYqqNtAOK+F09rY6NKmIKhVxFatxu3asfrarNVXZE0qqF2ZYSS6bqEyjTq7KIwdvq194kX0Y7fJliwbDPMuBKiKZ7tAWDkfumLRMi1zqoJaFxszQ9G13nBr7QjPtf2uUeJSFA7EtI9AmohqTGyVwsykc/WHAtSL3Hs/I3/9pc9HBPXwMHKX19cdeR1XKRqDRb9sm0ubatLY9G6/EOFfrn4FWOwBg4pn0/aybiOoR9msdav/Q9vs97IsU+fQ+cGruqxQ1n4bOqa2GztdOZrWCmrPR4N01o6m+yrW/DU84Txejdxa4avlx47ZyG0pPitsqFoBPNbOsqyn7pXLI2870Fd1DdU/EMlDxyrErrbTCn9X5snwtVsNhHe4EFqsPWrvqGh3LC/H+CMJAzAAAzAAAwNBvbS0JMvLy40ixfNyGoK62wtWRbXOZQ5X9G4qqHVlb1uO3beRZxXk9nw4rDzka1SEWsWz+zOoH/tqrLC8QqgOvx/WprdCthThg9dXhYuK6XetN9zGouFapk0bi77rw4TYubBNTb6rqLNC1otiI9xUbLk09mPFl9alwk/TFWLu3XLd7wwLapdeBbSm9eUFEVUt123Dsl0+KxY1bViuT1chsrVtdZFiFctqp9uGbY+lqbJP7XRb6//Qzlh7rQ1h27UtNk0o1tXOqrxhu0L7XNlhmbY9bfbL1zJViNk2ZamAttePFZ6urFgal96K2VidaqeWbVcJVxGt58JtWLaKYk0XfV1XC0Ht7F1jX+QVYLZddVH9WDpnq30wYdOw3+3vL/7EnzAAAzCwWAz4CHUKYnVeC6e1BT6FOdRt25RCej9EuqM5x31prxX3s7BJhVootmZRdyp1VAnVVOyfh50qLmcl1lRQhyJ3Hm2fZ50aeQ4fOMRsUrHeJG0sP8cW648h/Ul/wgAMwEA7BpIR1IvesbNc5XvRfKlRXzvEexHaWEapGwwR76K9COrRN08E9WgfWRbLKGm+OnfYnp/GPoJ6NUrf5CGG+stG5KfRL5TZ7trBX/gLBmAABtJhAEF9bj86C0Hdj37o281Lh5Xru7CnaR+CejSDCOrRPnKMqpCexzBiFYjrNUKtw9NHCWRN5/povfpqmvdTym52r8BP+AkGYGARGEhmUbJUnL1p0ya/MFlbexHU3FCqmPGi+uT9ct2m1QXiqtJOchxBPZpBBPVoH03CYBd5172g9ouVzW5EQBd9Rhn9v67oI/oIBmAABqoZSEZQp7BwmgMthVW+uSCqLwh8g29gAAZgAAZgAAZgAAZgAAaaMpCMoE5h4TTndAQ1F1/Ti490sAIDMAADMAADMAADMAADaTPgBfXmzZtl9+7dvDarg/nUCOq0LwhuaPQfDMAADMAADMAADMAADMBAUwa8oE4h+puCjc7pW7dulauuuqr1wwnmUHPRNr1oSQcrMAADMAADMAADMAADMNAPBpIR1IsODIK6HxfEonNG++AMBmAABmAABmAABmAABrpjAEHdwTDvLoBEUHcHdRf9QRn0BwzAAAzAAAzAAAzAAAzAwCgGvKB2r3rauXNn62HKowrnfHMAEdTNfQVXk/squ/aYnHzxuBzaNd1XcbXtK2/XM0dlX9Yvu9q2g/STM4oP8SEMwAAMwAAMwEAKDHhBnYKhKSyc5vzIomRc+HXXkxeMeS55/owc3Te+aMyyS+Twoy9JPoYoVhtePH5IdnUgXNWWV155RfQzjl3Ob9ceO+nLyBHVPODsyeihuuuZc9zvYQAGYAAGYAAGkhHUqSxK1ldBfcnhR+WlPJdnju6L/lHPLjksj76UC0KmuCmoP6pEp55XARnbxkSlitl5Ceosu1aOneyun1VMT9oe+2M0ilWbln1+xGAABmAABmAABmAABubJQDJDvhHUk10oKgCrBDMiZti/6q8qQR1etIX/XpTjh3ZFH1iE6Sf9XgrZlhFqFwHuUvy29VOTdpdtmzCK36Qu0gxzjz/wBwzAAAzAAAzAAAy0Y8AL6hTEago2Ovicnfv3728tqqY9h7pOpNSdW68XVFuhmIKgbtumJn2vEfeqkQ9NyoilmYatsXo41u4HA3/hLxiAARiAARiAARgYZiAZQb1x40YvVhe1A6ctqJ3fqqLQKl5s9DoWySyFdyQqqmXr0OfYcOemfVeItCLaq3NqXblVkVW13moVRwAAGPBJREFUv6w7H44Uq93ufCj81O7C3mJespYT21of2faMEtRaj5Y5yj9N2xSWo/6K+SrWp7YN4+yPEtTaDud364M86KOwbu2zsH1hOi0z7NcwHd+Hb/z4A3/AAAzAAAzAAAzAQDcMJCOoF73DZyGoVdyEojAmBmPiq0rkFGlXRWyZbswhuyrSnPhUW8syAzGvae3Q7JjIKvMbIVf6IyjTsabnbLl1DMZ8GEtf2hGpU9Or/bZuP/f5xOqq3LFyVEzbfFpmmb6Dxb7U5/pwILZVgat+9H1p2hzjS23V7Sif6nxwy4nmZdvNDwR+xI8wAAMwAAMwAAMwUM+AF9SprKC9yJ05E0GtK0MboVsKLSN2nJ9jgieWVgWTCijto6rjer5uq4JNxbSmDQVWaU8gEiuP68Jrvq2DVbKNL7Qet1X7Y+LUptP90DY9Hm5L2wJ/azoViWHb9bxuw3JUTIf9sJq+WIysaXs036it9lVlvUM+X13VfFQ+V2+TNKPaPcp+ztf/QOAf/AMDMAADMAADMAAD9Qx4QZ2Ck1J5V/aOHTvk4MGDvZtDrX2s0U8VQFXCsamgLspb+wqopsJQ7bLbKiEVila1Xdtiy4jZ785r2T6qaaLVNq9PNxCCTQVoaFtYnn4PhbAe121h32q0X4+HW1vOsb9yC43V51FfNW1PWF/Vd/VnrA9cnqp6R+Wry1tlC8frb/b4B//AAAzAAAzAAAzAQPcMJCOoU1mUrK+vzdKLRwWORkCrhGBMkFoRd2hXEW3UCGFs2O+4Q3GrxFZoq6arrLsi+qw214lL9VNdGvWp24a22XN2P+ZDe75tOdp2BHX3N0fbL+zjXxiAARiAARiAARiAgRgDXlCnsOAXgrobgEtB58XmYNhzZPhxU0FdCMC1EeoYbE2PqVAOo56h2FTRG6arq0fLfvHkyUbv5e67oC4W7Rq8W7riAYLzh44YaNqeOh/ac+rPqj7QPgrrHZXP23ztMTlZ8+50awf73dwf8CN+hAEYgAEYgAEYgIF2DHhBnYJYTcFGB9/27dvlxhtv7O2Qb2djIUxzeeboYTl2MpdQ7Lg0UUEdmQ/bRBiFF6Xmia1E7dLq+VCkrRHU2UBIBnOow/r0u4q7Ijqvc6jjQ6U1bcw3Wp7dhrbZc3a/fKAReYjh0jWtNyxHBXOlT3X+fEW91sY2+1V9pWVUtWdUPpe/iU+VZR1xofWybfdDgL/wFwzAAAzAAAzAAAyMx0AygjqVOdTjgjiLRcnUNhU5fkh2xdzbUPAM5TGirBR2FeVonXarQ65d/aFodunCujVvTGCpoBolfGOCU9sUezXTaruaRd9jtqnddluWa3xoz7t99Y/1jbd/xCrfZXsqItWxhyRh3W2/V/WVlqM2hf0zMl+DBwDqyzqO1Q624/1A4Df8BgMwAAMwAAMwAAP1DCQjqBe9I2cqqAdixQuRGmGnYtUKFi/KInlsWpfe5gn7TsVUZTS1YqhvlWhV0ab16lZFnIppd9yKVGeX2l0nqrU8t62KhFbZ5uqwws+WpfuxMtVHZZpAJGuZod2aLzanWv2kfgn7ZZzvWl/oVy2rqs5x82m5utXynZ+qbNC0bOt/DPAP/oEBGIABGIABGICB9gx4Qb20tCTLy8uthynj8PYOr/LZLAV1lQ0c764/++rLaUSpu25r+bAgeIgQq0cfllQ9nInl4djic04f08cwAAMwAAMwAAOzYsAL6llVNkk9KSyc5tqXwhzqSfqBvGnfnDSiG0a2+9SvOmqgScRZ03YZde+TL7Al7euN/qP/YAAGYAAGYGDxGUhGUKeyKFnfX5vFRb34F/WoPtbh1rGh5qPyTvu82jZKIGu62ND2adtI+VxDMAADMAADMAADMAADygCC+txuYRhXUGuHsO22P/Bn3J9OkJ548qjcNHifuEZ6dc521XbaQ6v9kPSGq7bTt/G+xS/4BQZgAAZgAAZgAAZmx4AX1ClEf1Ow0YG7Y8cOOXjwIPPRO35QwU1hdjcFfI2vYQAGYAAGYAAGYAAGYKAZA8kIahZOa9ahgI+fYAAGYAAGYAAGYAAGYAAGYGA2DCQjqAFiNkDgZ/wMAzAAAzAAAzAAAzAAAzAAA80Y8IJ669atsmfPHoYpM0wZBmAABmAABmAABmAABmAABmAABhoy4AU1Tx+aPX3AT/gJBmAABmAABmAABmAABmAABmBAGUhGUKeyKJk6li0XGQzAAAzAAAzAAAzAAAzAAAwsNgMI6oahfC6Exb4Q6F/6FwZgAAZgAAZgAAZgAAZgoC0DXlCfd955sn///l6Pk+97hHrbjQ/IqTwX9/7elYe+OFNfZj/zOfmFO1bk49847T97j7wgv3zNZTO1oS14WfZ++cJDL3h/5fk/yQM3ZL22t237SM/NGAZgAAZgAAZgAAZgAAYWnwEvqPsuVh2IqSycpsJ61qJaL9ZNV/1X+VjPBbWKaYT04t9glEu29DUMwAAMwAAMwAAMwMAiMpCMoE7F+Vm2TW584JTkKw/JF7PZR12TENTv/4I89EIu//TADUSlmXIAAzAAAzAAAzAAAzAAAzCQLAPJDPlGUDd7ooWgbuanVHjCTvoTBmAABmAABmAABmAABvrLgBfUdFB3HdR1hLoQyGZ+9NcekQ9cWB35biKom5Y5rbnZGRHqZJ/Aca/o7l6BL/ElDMAADMAADMAADKTPQDKCetu2bXLgwIHeC5EuBfXW33pC7AJjWfYB2fHZ52TvkWdk16VxUT1KUIdluos4u/Br8is33ypbzRB1d2z5yIpcbY6rEP/Yv//tifoBQZ3+jYObP30IAzAAAzAAAzAAAzAAA+dKMoI6hYXTHFBdCWqNDofiteq4wlwnqEtBPiLKXab702PyXiuyVdAHx7XuplsENTffpqyQDlZgAAZgAAZgAAZgAAb6zIAX1CmsoJ2KoHadXaz0fVpO3LNv7EhuIYzXRqKz7DK58I9WZG+FqK0T1M42F6F2r9faWyOq60R7EeFea1cbyC+754Swwjc3xjbMkBZeYAAGYAAGYAAGYAAG+siAF9QpiNUU3pVtO1gj1eO+l1qFr75bOtyOK6idjTp0W8sMxbUO99bz4bZuyLn1gd3XV2U5f7C6NzdDywb78AADMAADMAADMAADMJAqA8kI6pQcPM0I9Sg/jIpQh/lVXFuRXBehDvOP850INTfMcbghD9zAAAzAAAzAAAzAAAz0jQEvqFNZ8KtvzovZo5HpSd9DrVHicA51rE57rK2gdnnDPKOGldv6xtlnDjU3wnG4IQ/cwAAMwAAMwAAMwAAM9I0BL6j7ZlTK9nQmqHUBsCMvyC9fc1njudihOLa+LITy8PzncgGyYE61Rq7tKt+2rEn2EdTcCCfhh7zwAwMwAAMwAAMwAAMw0BcGkhHUqcyh7kpQKyAqbO08ZvsqLZculkbT26HcLq0O59bzbls1HzuW1qWfVGQjqLkBKt9sYQEGYAAGYAAGYAAGYCBlBpIR1CksnOZA6FpQpwxXle0Iam6aVWxwHDZgAAZgAAZgAAZgAAZSYsAL6qWlJVleXm48rHgeDURQL86FhaBenL6cx72AOuEHBmAABmAABmAABmCgLwx4QZ2CWE1l4bRs5x3yRJ7LykNf7PUDinkCqK/QyleekDsuz/DTudwQ58kjdcMfDMAADMAADMAADMDAuAwkI6jHbeCs8hWvysrFvWf59Il7ZF+GUKzzvVsg7Z4Thb/y/J/kgRvwV52/OMdNHgZgAAZgAAZgAAZgAAb6xwCCmuggEWIYgAEYgAEYgAEYgAEYgAEYgIExGPCCmicd/XvSQZ/QJzAAAzAAAzAAAzAAAzAAAzDQbwaSEdRbt26VPXv28NRkjKcmXIT9vgjpH/oHBmAABmAABmAABmAABtJkIBlBncLCaVwEaV4E9Bv9BgMwAAMwAAMwAAMwAAMwMA4DXlBv3rxZdu/e3evobyqCOgVfjgMKebjBwAAMwAAMwAAMwAAMwAAMwMAwA15QpyBWU7DRwZWKnX25EK49dlJePH5IdgWromfZtXLs5DNydB+rf/elr7Bj+OaJP/AHDMAADMAADMAADMBAMoI6FVgXUVAX4rZ4xZV7LZj75M8cnfjVYE5M5/mLcvzQrjWjI7Jrj8nJPJc8R1Snwj528oMCAzAAAzAAAzAAAzCw3hhAUHe8yNeiCWoV0/mLx+XQru6ixSqYnzm6b42Y1oswu+SwPPpS3ol41zLZcpOHARiAARiAARiAARiAARjoigEvqDdu3OiHKndV6HouZ1xfyllniX765L8mwretvaVIbxDlvuTwo/JSnkud8G5bP+m5gcIADMAADMAADMAADMAADHTBgBfUXRQ07TIWfbEvFdNuO21ftim/ELTxYdltyrFp25SZZZfI4Udfkq4j5NYe9rmZwgAMwAAMwAAMwAAMwAAMjMNAMoJ60YZSh52VqqDWYdkugqzRZD/HumputF9srN0w7iYCXO3oYm532Dd85+YKAzAAAzAAAzAAAzAAAzAQY8AL6k2bNsnOnTt7FRkNjU1FUI/ryz4JaiuMdREyu7ULiamQ9SLazLMuFhxbu6CYpm8zhFvzxFYDV05cfYWQX1unpmHLTRAGYAAGYAAGYAAGYAAGYKBLBrygTkGsOhs/+7u/K7e++c1y6vWvl//1Iz8iT7zxjfKxd76z1YOA8885R7599tly81ve0ipfU6eP68s+CWrb1lHRYRW74ZDsqrnXxfF2Q8ibzLnW+ohQc4O0/LIPDzAAAzAAAzAAAzAAA9NkIBlB7Rb7uvdtb5Pjb3qT/Mbb3y4ffec75Vs/9mPy/171KvnFn/zJkeL4gnPOkT/bsEH++TWvkX856yy5BUE90mcOvKaCOoweq8ANI9GjyovBzjxqboIxLjgGFzAAAzAAAzAAAzAAA/NmIBlB7Rz18+9615AIfPe558pLr3ud3L5hw9DxmFN/721vkzOvfa389tvfLj943esQ1A1fFzZKAGuEGkHNzSx23XEMLmAABmAABmAABmAABhaZAS+oU15B+7+/8Y1y77/6VyMF9bYsEyfAXWdOU1CP68vUh3w3FdTTGvK9yBcpbeNHCAZgAAZgAAZgAAZgAAb6yYAX1Cl0TmyxLzcf+n+/+tXyqR//8ZGC2rZxmoLa1tNmf90I6ksOy6Mv5RIK8DpfVUXBbR5Nk+csSmb9wn4/b7z0C/0CAzAAAzAAAzAAA4vBQDKCOlzsa/s558g/vv71cuINb5DNDYcvK7QI6ubwdj3ku8kCY9pPuh1lg0tXpMn9St9txLrWwbY5E/gKX8EADMAADMAADMAADMBAwYAX1G7BLydY++wUK6h//qd+Sn742tfK37/xjbI1y0q7fzrL5PNvfevQxy1GFrZrmoJ6XF+ulwi164smAln7rOmCZJrOvzrrmaOyz3ChZbHlxg8DMAADMAADMAADMAADMNAlA15QW7HaZeFdlqU27vmJn/ArdR87+2zZEogmF7X+i7PPHvpcFCxk5myapqBWO9u2va+Cum07mqRvE6XWyHO4WnisHn0XdZO0sfwc4+YKAzAAAzAAAzAAAzAAAzDQhoFkBLWbQ73vZ35G/u+rXiU3tpwzHToEQT3/i0SFct3w7HJedIOIc5n2xeNyaNfqqIWw7/k+/76nD+gDGIABGIABGIABGICBRWEgGUHtHP4Pb3hDoxW9R3UOgrofF3BdRLmMYo8QyJrODfWuE+ejmOB8P5igH+gHGIABGIABGIABGICBlBjwgnppaUmWl5fXzDXuU0PcK6/+z6tfLX/zpjfJVzZsGPrc+uY3t7J9moJ6XF9Oe8i3ilcnPOs++QgB2zUT1x47IU8evUl2BcP3i9drsWJ31/6mPH6gYAAGYAAGYAAGYAAGYKA7BrygTsGhW979bvnrDRvkwR/90TWfb599ditBffuGDXLNO97RKs+0fTRtQT1t+ym/u4sSX+JLGIABGIABGIABGIABGEiDgWQE9biLfaUCIoI6jQsmFZ6wE55gAAZgAAZgAAZgAAZgYPoMIKhbvsN6WlAiqKcP+7T6jnLpOxiAARiAARiAARiAARhYnwx4QZ1C9DcFGye5iBDU6/MCnIQZ8sIMDMAADMAADMAADMAADMyXgWQE9ebNm2X37t29mvfcJbwI6vleCF32JWXRlzAAAzAAAzAAAzAAAzCwPhhIRlAvOpAI6vVxwS06x7QPjmEABmAABmAABmAABtYTA15Qb926Vfbs2bOw0d8UOhRBzY0nBU6xEU5hAAZgAAZgAAZgAAZgYJUBL6hxyKpDxvXFthsfkFN57t/xvPLQF1s/nEBQT94H4/Yd+fA9DMAADMAADMAADMAADMDAOAwkI6hTWZRMhXVbUY2g5gIe5wImD9zAAAzAAAzAAAzAAAzAwPwYQFB3/NqsLNsmNz5wSvKVh+SLWdY4Uo2gnt9FwA0I38MADMAADMAADMAADMAADIzDgBfU27ZtkwMHDjQWf+NUNGmeVCLUCGouxElZJz8MwQAMwAAMwAAMwAAMwEAaDHhBnYJYXVpakuXl5V6Lfgc9gjoN8LlB0U8wAAMwAAMwAAMwAAMwAAOTMpCMoJ60obPKj6DmopwVa9QDazAAAzAAAzAAAzAAAzAwXwa8oD7vvPNk//79vY/+pgALgnq+QKfACDbCCAzAAAzAAAzAAAzAAAwsBgNeUNOZ3XZmsdL3aTlxz77GDylYlKzbPoBp/AkDMAADMAADMAADMAADMDBtBpIR1CksnGY7SyPVr7zyirR9hZYth31uAjAAAzAAAzAAAzAAAzAAAzDQTwaSEdQpLJymkI8Toda8bPt5odAv9AsMwAAMwAAMwAAMwAAMwEDIQDJzqFMR1BqZbvse6rBj+M7FCgMwAAMwAAMwAAMwAAMwAAP9ZsAL6hTEaioLpyGo+w08NyT6BwZgAAZgAAZgAAZgAAZgoCsGkhHUXTV42uUgqLk4p80Y5cMYDMAADMAADMAADMAADPSDAS+oU1vwq8/wIKj7AXafGcE2GIEBGIABGIABGIABGICBxWDAC2o6s7vORFB350u4xJcwAAMwAAMwAAMwAAMwAAN9ZiAZQZ3MHOqdd8gTec6rss7lwu/zhY9t8AkDMAADMAADMAADMAADkzOQjKDu+8JpxauycnHvnT594h7Zl2UCoJMDig/xIQzAAAzAAAzAAAzAAAzAQF8Z8IJ6aWlJlpeXey0A+y6o+9rB2MXNBwZgAAZgAAZgAAZgAAZgAAamw4AX1CmIVRZOmw4AXFj4FQZgAAZgAAZgAAZgAAZgAAbGYyAZQU0Hj9fB+A2/wQAMwAAMwAAMwAAMwAAMwMB0GEBQs3hWr4f6c+FP58LHr/gVBmAABmAABmAABmAABiZnwAtqHDm5I/EhPoQBGIABGIABGIABGIABGICB9cUAgpoINRFqGIABGIABGIABGIABGIABGICBMRhAUI/hNJ46ra+nTvQ3/Q0DMAADMAADMAADMAADMBBjwAvqzZs3y+7du3v5RCK7+uty4uXi/c75390pH+L9zr3spxhcHOOmAwMwAAMwAAMwAAMwAAMwsMgMeEGdwmuzVFgjqrkgF/mCpG3wDQMwAAMwAAMwAAMwAAPpMJCMoHZQXf31E/Jy/ndy54cyorQMVYcBGIABGIABGIABGIABGIABGJgrAwhqAJwrgDx9S+fpG31FX8EADMAADMAADMAADMDAMANeUG/cuFHcsO++O4cI9XDn9b2/sI/+ggEYgAEYgAEYgAEYgAEYWGQGvKBOpYEIai7GVFjFTliFARiAARiAARiAARiAgcVnAEHNkO/ej0zgRrT4NyL6mD6GARiAARiAARiAARhIkQEvqDdt2iQ7d+7svbDSlb5PffegvJfXZ/W+v1K8ILCZGzkMwAAMwAAMwAAMwAAMwEBTBrygTuG1WbZBxdDvXHiFFqBbLtiHBxiAARiAARiAARiAARiAgVkykJSgJkLNxTHLi4O64A0GYAAGYAAGYAAGYAAGYKCOgaQEdZNFybLsavn6iZfllVdeEYaGA38d/JyDDxiAARiAARiAARiAARiAgUkYSGoOdTNB/Tn5q5dyL6jz/O/kzg9lzDVm4TUYgAEYgAEYgAEYgAEYgAEYgIHOGfCCehJFPsu8TQS1s6ecY42g7hyYWfY3dfG0EAZgAAZgAAZgAAZgAAZgoM8MLKSg1rnW+anvysH3EqHuM4DYxg0SBmAABmAABmAABmAABmAgVQa8oN64caO4lb773oimEerP/dVLkuen5LsH39v7NvXd59jHzQ0GYAAGYAAGYAAGYAAGYAAG4gx4QZ3Ca7OyrJgbXfeqLCek3WJkRKbjnc1FgF9gAAZgAAZgAAZgAAZgAAZgoDsGei+odfg2Qrm7TucCwpcwAAMwAAMwAAMwAAMwAAMwMDkDvRfUdPLknYwP8SEMwAAMwAAMwAAMwAAMwAAMdM+AF9RLS0uyvLzMfGOWkYcBGIABGIABGIABGIABGIABGICBhgx4Qc2Tiu6fVOBTfAoDMAADMAADMAADMAADMAADi83A/wdCi4/ybjPMDgAAAABJRU5ErkJggg==;" vertex="1" parent="1">
                    <mxGeometry x="100" y="170" width="980" height="482" as="geometry"/>
                </mxCell>
            </root>
        </mxGraphModel>
    </diagram>
</mxfile>